<svg aria-hidden="true" style="position: absolute; width: 0; height: 0; overflow: hidden;" version="1.1" xmlns="http://www.w3.org/2000/svg" xmlns:xlink="http://www.w3.org/1999/xlink">
<defs>
<symbol id="icon-logo" viewBox="0 0 32 32">
<path fill="#f5f5f5" style="fill: var(--color1, #f5f5f5)" d="M10.821 13.988h1.979v6.017h-1.979c-0.359 0-0.691-0.053-0.998-0.158-0.296-0.116-0.554-0.296-0.776-0.538-0.211-0.243-0.38-0.554-0.507-0.934-0.116-0.38-0.174-0.839-0.174-1.378s0.058-0.998 0.174-1.378c0.127-0.38 0.296-0.691 0.507-0.934 0.222-0.243 0.48-0.417 0.776-0.523 0.306-0.116 0.639-0.174 0.998-0.174zM8.826 20.828c0.602 0.19 1.267 0.285 1.995 0.285h4.196v-1.911c-0.883-0.427-1.491-1.331-1.491-2.377s0.609-1.95 1.491-2.377v-4.419h-2.217v2.85h-1.979c-0.728 0-1.393 0.095-1.995 0.285-0.591 0.19-1.098 0.465-1.52 0.823s-0.75 0.792-0.982 1.298c-0.222 0.507-0.333 1.077-0.333 1.71s0.111 1.203 0.333 1.71c0.232 0.507 0.559 0.94 0.982 1.298s0.929 0.633 1.52 0.823zM17.227 19.241v1.872h4.196c0.728 0 1.388-0.095 1.979-0.285 0.602-0.19 1.114-0.465 1.536-0.823s0.744-0.792 0.966-1.298c0.232-0.507 0.348-1.077 0.348-1.71s-0.116-1.203-0.348-1.71c-0.222-0.507-0.544-0.94-0.966-1.298s-0.934-0.633-1.536-0.823c-0.591-0.19-1.251-0.285-1.979-0.285h-1.979v-2.85h-2.217v4.379c0.929 0.409 1.577 1.337 1.577 2.417s-0.648 2.008-1.577 2.417zM22.405 19.847c-0.296 0.106-0.623 0.158-0.982 0.158h-1.979v-6.017h1.979c0.359 0 0.686 0.058 0.982 0.174 0.306 0.106 0.565 0.28 0.776 0.523 0.222 0.243 0.391 0.554 0.507 0.934 0.127 0.38 0.19 0.839 0.19 1.378s-0.063 0.998-0.19 1.378c-0.116 0.38-0.285 0.691-0.507 0.934-0.211 0.243-0.47 0.422-0.776 0.538z"></path>
<path fill="#f5f5f5" style="fill: var(--color1, #f5f5f5)" d="M17.485 16.825c0 0.729-0.591 1.32-1.32 1.32s-1.32-0.591-1.32-1.32c0-0.729 0.591-1.32 1.32-1.32s1.32 0.591 1.32 1.32z"></path>
<path fill="none" stroke="#f5f5f5" style="stroke: var(--color1, #f5f5f5)" stroke-linejoin="miter" stroke-linecap="butt" stroke-miterlimit="4" stroke-width="0.3299" d="M31.835 16c0 8.745-7.090 15.835-15.835 15.835s-15.835-7.090-15.835-15.835c0-8.745 7.090-15.835 15.835-15.835s15.835 7.090 15.835 15.835z"></path>
</symbol>
<symbol id="icon-audio" viewBox="0 0 32 32">
<path stroke-linejoin="miter" stroke-linecap="butt" stroke-miterlimit="4" stroke-width="0.6857" d="M17.943 16c0 1.073-0.87 1.943-1.943 1.943s-1.943-0.87-1.943-1.943c0-1.073 0.87-1.943 1.943-1.943s1.943 0.87 1.943 1.943z"></path>
<path stroke-linejoin="miter" stroke-linecap="round" stroke-miterlimit="4" stroke-width="0.6857" d="M13.257 1.829c-5.829 1.371-9.714 5.257-11.2 11.314"></path>
<path stroke-linejoin="miter" stroke-linecap="round" stroke-miterlimit="4" stroke-width="0.6857" d="M14.171 6.743c-3.2 0.8-6.171 3.2-7.2 7.429"></path>
<path stroke-linejoin="miter" stroke-linecap="round" stroke-miterlimit="4" stroke-width="0.6857" d="M18.743 1.829c5.829 1.371 9.714 5.257 11.2 11.314"></path>
<path stroke-linejoin="miter" stroke-linecap="round" stroke-miterlimit="4" stroke-width="0.6857" d="M17.829 6.743c3.2 0.8 6.171 3.2 7.2 7.429"></path>
<path stroke-linejoin="miter" stroke-linecap="round" stroke-miterlimit="4" stroke-width="0.6857" d="M13.257 30.171c-5.829-1.371-9.714-5.257-11.2-11.314"></path>
<path stroke-linejoin="miter" stroke-linecap="round" stroke-miterlimit="4" stroke-width="0.6857" d="M14.171 25.257c-3.2-0.8-6.171-3.2-7.2-7.429"></path>
<path stroke-linejoin="miter" stroke-linecap="round" stroke-miterlimit="4" stroke-width="0.6857" d="M18.743 30.171c5.829-1.371 9.714-5.257 11.2-11.314"></path>
<path stroke-linejoin="miter" stroke-linecap="round" stroke-miterlimit="4" stroke-width="0.6857" d="M17.829 25.257c3.2-0.8 6.171-3.2 7.2-7.429"></path>
</symbol>
<symbol id="icon-chip" viewBox="0 0 32 32">
<path d="M12.705 11.2c-0.428 0.030-0.928 0.303-1.22 0.658-0.266 0.322-0.485 0.802-0.399 1.267 0.468 0.014 0.951-0.265 1.231-0.627 0.262-0.336 0.46-0.813 0.388-1.299z"></path>
<path d="M14.396 13.884c-0.411-0.514-0.988-0.812-1.534-0.812-0.72 0-1.025 0.344-1.525 0.344-0.516 0-0.908-0.342-1.53-0.342-0.612 0-1.263 0.372-1.676 1.010-0.581 0.897-0.481 2.583 0.46 4.020 0.337 0.514 0.786 1.092 1.374 1.097 0.523 0.005 0.671-0.334 1.38-0.338s0.843 0.343 1.366 0.337c0.589-0.005 1.063-0.645 1.399-1.159 0.241-0.369 0.331-0.554 0.518-0.97-1.361-0.517-1.579-2.445-0.232-3.186z"></path>
<path fill="none" stroke="#000" style="stroke: var(--color2, #000)" stroke-linejoin="miter" stroke-linecap="round" stroke-miterlimit="4" stroke-width="0.6857" d="M8 27.886v2.743"></path>
<path fill="none" stroke="#000" style="stroke: var(--color2, #000)" stroke-linejoin="miter" stroke-linecap="round" stroke-miterlimit="4" stroke-width="0.6857" d="M11.2 27.886v2.743"></path>
<path fill="none" stroke="#000" style="stroke: var(--color2, #000)" stroke-linejoin="miter" stroke-linecap="round" stroke-miterlimit="4" stroke-width="0.6857" d="M14.4 27.886v2.743"></path>
<path fill="none" stroke="#000" style="stroke: var(--color2, #000)" stroke-linejoin="miter" stroke-linecap="round" stroke-miterlimit="4" stroke-width="0.6857" d="M17.6 27.886v2.743"></path>
<path fill="none" stroke="#000" style="stroke: var(--color2, #000)" stroke-linejoin="miter" stroke-linecap="round" stroke-miterlimit="4" stroke-width="0.6857" d="M20.8 27.886v2.743"></path>
<path fill="none" stroke="#000" style="stroke: var(--color2, #000)" stroke-linejoin="miter" stroke-linecap="round" stroke-miterlimit="4" stroke-width="0.6857" d="M24 27.886v2.743"></path>
<path fill="none" stroke="#000" style="stroke: var(--color2, #000)" stroke-linejoin="miter" stroke-linecap="round" stroke-miterlimit="4" stroke-width="0.6857" d="M1.371 24h2.743"></path>
<path fill="none" stroke="#000" style="stroke: var(--color2, #000)" stroke-linejoin="miter" stroke-linecap="round" stroke-miterlimit="4" stroke-width="0.6857" d="M1.371 20.8h2.743"></path>
<path fill="none" stroke="#000" style="stroke: var(--color2, #000)" stroke-linejoin="miter" stroke-linecap="round" stroke-miterlimit="4" stroke-width="0.6857" d="M1.371 17.6h2.743"></path>
<path fill="none" stroke="#000" style="stroke: var(--color2, #000)" stroke-linejoin="miter" stroke-linecap="round" stroke-miterlimit="4" stroke-width="0.6857" d="M1.371 14.4h2.743"></path>
<path fill="none" stroke="#000" style="stroke: var(--color2, #000)" stroke-linejoin="miter" stroke-linecap="round" stroke-miterlimit="4" stroke-width="0.6857" d="M1.371 11.2h2.743"></path>
<path fill="none" stroke="#000" style="stroke: var(--color2, #000)" stroke-linejoin="miter" stroke-linecap="round" stroke-miterlimit="4" stroke-width="0.6857" d="M1.371 8h2.743"></path>
<path fill="none" stroke="#000" style="stroke: var(--color2, #000)" stroke-linejoin="miter" stroke-linecap="round" stroke-miterlimit="4" stroke-width="0.6857" d="M27.886 24h2.743"></path>
<path fill="none" stroke="#000" style="stroke: var(--color2, #000)" stroke-linejoin="miter" stroke-linecap="round" stroke-miterlimit="4" stroke-width="0.6857" d="M27.886 20.8h2.743"></path>
<path fill="none" stroke="#000" style="stroke: var(--color2, #000)" stroke-linejoin="miter" stroke-linecap="round" stroke-miterlimit="4" stroke-width="0.6857" d="M27.886 17.6h2.743"></path>
<path fill="none" stroke="#000" style="stroke: var(--color2, #000)" stroke-linejoin="miter" stroke-linecap="round" stroke-miterlimit="4" stroke-width="0.6857" d="M27.886 14.4h2.743"></path>
<path fill="none" stroke="#000" style="stroke: var(--color2, #000)" stroke-linejoin="miter" stroke-linecap="round" stroke-miterlimit="4" stroke-width="0.6857" d="M27.886 11.2h2.743"></path>
<path fill="none" stroke="#000" style="stroke: var(--color2, #000)" stroke-linejoin="miter" stroke-linecap="round" stroke-miterlimit="4" stroke-width="0.6857" d="M27.886 8h2.743"></path>
<path fill="none" stroke="#000" style="stroke: var(--color2, #000)" stroke-linejoin="miter" stroke-linecap="round" stroke-miterlimit="4" stroke-width="0.6857" d="M8 1.371v2.743"></path>
<path fill="none" stroke="#000" style="stroke: var(--color2, #000)" stroke-linejoin="miter" stroke-linecap="round" stroke-miterlimit="4" stroke-width="0.6857" d="M11.2 1.371v2.743"></path>
<path fill="none" stroke="#000" style="stroke: var(--color2, #000)" stroke-linejoin="miter" stroke-linecap="round" stroke-miterlimit="4" stroke-width="0.6857" d="M14.4 1.371v2.743"></path>
<path fill="none" stroke="#000" style="stroke: var(--color2, #000)" stroke-linejoin="miter" stroke-linecap="round" stroke-miterlimit="4" stroke-width="0.6857" d="M17.6 1.371v2.743"></path>
<path fill="none" stroke="#000" style="stroke: var(--color2, #000)" stroke-linejoin="miter" stroke-linecap="round" stroke-miterlimit="4" stroke-width="0.6857" d="M20.8 1.371v2.743"></path>
<path fill="none" stroke="#000" style="stroke: var(--color2, #000)" stroke-linejoin="miter" stroke-linecap="round" stroke-miterlimit="4" stroke-width="0.6857" d="M24 1.371v2.743"></path>
<path fill="none" stroke="#000" style="stroke: var(--color2, #000)" stroke-linejoin="miter" stroke-linecap="butt" stroke-miterlimit="4" stroke-width="0.6857" d="M5.714 4.457h20.571c0.694 0 1.257 0.563 1.257 1.257v20.571c0 0.694-0.563 1.257-1.257 1.257h-20.571c-0.694 0-1.257-0.563-1.257-1.257v-20.571c0-0.694 0.563-1.257 1.257-1.257z"></path>
<path d="M21.952 13.825l-1.293 4.461h-0.653l-1.037-3.59-1.075 3.59-0.646 0.006-1.248-4.467h0.621l0.973 3.782 1.075-3.782h0.653l1.024 3.77 0.979-3.77h0.627zM22.34 14.19v-0.531h1.203v4.627h-0.589v-4.096h-0.614z"></path>
</symbol>
<symbol id="icon-phone" viewBox="0 0 32 32">
<path fill="none" stroke="#000" style="stroke: var(--color2, #000)" stroke-linejoin="miter" stroke-linecap="butt" stroke-miterlimit="4" stroke-width="0.6857" d="M7.314 28.914h17.371"></path>
<path fill="none" stroke="#000" style="stroke: var(--color2, #000)" stroke-linejoin="miter" stroke-linecap="butt" stroke-miterlimit="4" stroke-width="0.6857" d="M7.314 2.857h17.371"></path>
<path fill="none" stroke="#000" style="stroke: var(--color2, #000)" stroke-linejoin="miter" stroke-linecap="butt" stroke-miterlimit="4" stroke-width="0.6857" d="M9.829 0.343h12.343c1.199 0 2.171 0.972 2.171 2.171v26.971c0 1.199-0.972 2.171-2.171 2.171h-12.343c-1.199 0-2.171-0.972-2.171-2.171v-26.971c0-1.199 0.972-2.171 2.171-2.171z"></path>
<path d="M12.947 17.852c-0.548-0.704-1.318-1.113-2.045-1.113-0.96 0-1.366 0.471-2.033 0.471-0.688 0-1.21-0.47-2.040-0.47-0.816 0-1.684 0.511-2.234 1.384-0.774 1.23-0.642 3.543 0.613 5.513 0.449 0.705 1.048 1.498 1.832 1.504 0.698 0.007 0.894-0.459 1.84-0.464s1.125 0.47 1.821 0.462c0.785-0.006 1.417-0.885 1.866-1.59 0.322-0.505 0.442-0.76 0.691-1.33-1.815-0.708-2.106-3.354-0.31-4.369z"></path>
<path d="M10.692 14.171c-0.571 0.040-1.238 0.415-1.626 0.902-0.355 0.442-0.646 1.099-0.533 1.738 0.624 0.020 1.268-0.363 1.641-0.859 0.349-0.462 0.613-1.114 0.518-1.781z"></path>
<path d="M25.2 18.057c0.384 0 0.72-0.333 0.72-0.715v-1.671h0.48c0.288 0 0.48-0.191 0.48-0.478v-4.772h-5.761v4.772c0 0.287 0.192 0.478 0.48 0.478h0.48v1.671c0 0.382 0.335 0.715 0.72 0.715s0.72-0.333 0.72-0.715v-1.671h0.961v1.671c0 0.382 0.335 0.715 0.72 0.715z"></path>
<path d="M28 15.086c0.305 0 0.571-0.319 0.571-0.685v-3.201c0-0.364-0.266-0.685-0.571-0.685s-0.571 0.321-0.571 0.685v3.201c0 0.366 0.266 0.685 0.571 0.685z"></path>
<path d="M20 15.086c0.305 0 0.571-0.319 0.571-0.685v-3.201c0-0.364-0.266-0.685-0.571-0.685s-0.571 0.321-0.571 0.685v3.201c0 0.366 0.266 0.685 0.571 0.685z"></path>
<path d="M26.304 6.701c-0.096-0.096-0.239-0.096-0.335 0l-0.674 0.668c-0.382-0.19-0.811-0.285-1.288-0.286-0.003 0-0.005-0-0.007-0v0c-0.003 0-0.005 0-0.007 0-0.477 0.001-0.906 0.096-1.288 0.286l-0.674-0.668c-0.096-0.096-0.239-0.096-0.335 0s-0.096 0.237 0 0.333l0.623 0.62c-0.201 0.133-0.383 0.296-0.541 0.483-0.379 0.447-0.621 1.028-0.654 1.658-0 0.007-0.001 0.013-0.001 0.020-0.002 0.043-0.003 0.086-0.003 0.129h5.761c0-0.043-0.001-0.086-0.003-0.129-0-0.007-0.001-0.013-0.001-0.020-0.033-0.63-0.275-1.212-0.654-1.658-0.158-0.187-0.34-0.35-0.541-0.483l0.623-0.62c0.096-0.096 0.096-0.237 0-0.333zM22.799 9.11c-0.199 0-0.36-0.16-0.36-0.358s0.161-0.358 0.36-0.358c0.199 0 0.36 0.16 0.36 0.358s-0.161 0.358-0.36 0.358zM25.201 9.11c-0.199 0-0.36-0.16-0.36-0.358s0.161-0.358 0.36-0.358c0.199 0 0.36 0.16 0.36 0.358s-0.161 0.358-0.36 0.358z"></path>
</symbol>
<symbol id="icon-battery" viewBox="0 0 32 32">
<path fill="none" stroke="#000" style="stroke: var(--color2, #000)" stroke-linejoin="miter" stroke-linecap="butt" stroke-miterlimit="4" stroke-width="0.6857" d="M19.2 2.971v-2.057c0-0.252-0.205-0.457-0.457-0.457h-5.486c-0.252 0-0.457 0.205-0.457 0.457v2.057"></path>
<path fill="none" stroke="#000" style="stroke: var(--color2, #000)" stroke-linejoin="miter" stroke-linecap="butt" stroke-miterlimit="4" stroke-width="0.6857" d="M9.371 2.629h13.257c0.694 0 1.257 0.563 1.257 1.257v26.514c0 0.694-0.563 1.257-1.257 1.257h-13.257c-0.694 0-1.257-0.563-1.257-1.257v-26.514c0-0.694 0.563-1.257 1.257-1.257z"></path>
<path fill="none" stroke="#000" style="stroke: var(--color2, #000)" stroke-linejoin="miter" stroke-linecap="butt" stroke-miterlimit="4" stroke-width="0.6857" d="M7.771 24.343h16.457"></path>
<path d="M9.745 17.819c0.542-0.435 0.966-0.791 1.274-1.069 0.307-0.282 0.565-0.574 0.774-0.877 0.213-0.307 0.32-0.608 0.32-0.902 0-0.277-0.068-0.495-0.205-0.653-0.132-0.162-0.348-0.243-0.646-0.243-0.29 0-0.516 0.092-0.678 0.275-0.158 0.179-0.243 0.42-0.256 0.723h-0.563c0.017-0.478 0.162-0.847 0.435-1.107s0.625-0.39 1.056-0.39c0.439 0 0.787 0.122 1.043 0.365 0.26 0.243 0.39 0.578 0.39 1.005 0 0.354-0.107 0.7-0.32 1.037-0.209 0.333-0.448 0.627-0.717 0.883-0.269 0.252-0.612 0.546-1.030 0.883h2.202v0.486h-3.078v-0.416zM13.426 17.819c0.542-0.435 0.966-0.791 1.274-1.069 0.307-0.282 0.565-0.574 0.774-0.877 0.213-0.307 0.32-0.608 0.32-0.902 0-0.277-0.068-0.495-0.205-0.653-0.132-0.162-0.348-0.243-0.646-0.243-0.29 0-0.516 0.092-0.678 0.275-0.158 0.179-0.243 0.42-0.256 0.723h-0.563c0.017-0.478 0.162-0.847 0.435-1.107s0.625-0.39 1.056-0.39c0.439 0 0.787 0.122 1.043 0.365 0.26 0.243 0.39 0.578 0.39 1.005 0 0.354-0.107 0.7-0.32 1.037-0.209 0.333-0.448 0.627-0.717 0.883-0.269 0.252-0.612 0.546-1.030 0.883h2.202v0.486h-3.078v-0.416zM20.721 14.714c0.265 0 0.503 0.058 0.717 0.173 0.213 0.111 0.38 0.279 0.499 0.506 0.124 0.226 0.186 0.501 0.186 0.826v2.067h-0.576v-1.984c0-0.35-0.087-0.617-0.262-0.8-0.175-0.188-0.414-0.282-0.717-0.282-0.307 0-0.553 0.096-0.736 0.288-0.179 0.192-0.269 0.471-0.269 0.838v1.939h-0.582v-4.736h0.582v1.728c0.115-0.179 0.273-0.318 0.474-0.416 0.205-0.098 0.433-0.147 0.685-0.147z"></path>
</symbol>
<symbol id="icon-instagram" viewBox="0 0 32 32">
<path d="M10.353 8.471c-1.040 0-1.882 0.843-1.882 1.882v11.294c0 1.040 0.843 1.882 1.882 1.882h11.294c1.040 0 1.882-0.843 1.882-1.882v-11.294c0-1.040-0.843-1.882-1.882-1.882h-11.294zM20.872 12.013c0 0.489-0.397 0.886-0.886 0.886s-0.886-0.397-0.886-0.886c0-0.489 0.397-0.886 0.886-0.886s0.886 0.397 0.886 0.886zM12.014 16c0-2.211 1.806-3.986 3.986-3.986s3.986 1.806 3.986 3.986c0 2.18-1.775 3.986-3.986 3.986s-3.986-1.775-3.986-3.986zM13.447 16c0 1.401 1.152 2.554 2.554 2.554s2.554-1.152 2.554-2.554-1.152-2.554-2.554-2.554c-1.401 0-2.554 1.152-2.554 2.554z"></path>
<path fill="none" stroke="#000" style="stroke: var(--color2, #000)" stroke-linejoin="miter" stroke-linecap="butt" stroke-miterlimit="4" stroke-width="0.6275" d="M10.039 0.314h11.922c5.371 0 9.726 4.354 9.726 9.726v11.922c0 5.371-4.354 9.726-9.726 9.726h-11.922c-5.371 0-9.726-4.354-9.726-9.726v-11.922c0-5.371 4.354-9.726 9.726-9.726z"></path>
</symbol>
<symbol id="icon-telegram" viewBox="0 0 32 32">
<path d="M23.486 9.842l-2.273 12.779c-0.171 0.902-0.619 1.126-1.254 0.702l-3.462-3.043-1.671 1.916c-0.185 0.22-0.339 0.405-0.696 0.405l0.249-4.205 6.417-6.915c0.279-0.297-0.061-0.461-0.434-0.164l-7.933 5.957-3.415-1.275c-0.743-0.277-0.756-0.886 0.155-1.311l13.359-6.137c0.619-0.277 1.16 0.164 0.958 1.291z"></path>
<path fill="none" stroke="#000" style="stroke: var(--color2, #000)" stroke-linejoin="miter" stroke-linecap="butt" stroke-miterlimit="4" stroke-width="0.6275" d="M10.039 0.314h11.922c5.371 0 9.726 4.354 9.726 9.726v11.922c0 5.371-4.354 9.726-9.726 9.726h-11.922c-5.371 0-9.726-4.354-9.726-9.726v-11.922c0-5.371 4.354-9.726 9.726-9.726z"></path>
</symbol>
<symbol id="icon-youtube" viewBox="0 0 32 32">
<path d="M21.883 11.281c0.648 0.165 1.158 0.653 1.331 1.272 0.315 1.122 0.315 3.463 0.315 3.463s0 2.341-0.315 3.463c-0.173 0.619-0.683 1.086-1.331 1.252-1.174 0.3-5.883 0.3-5.883 0.3s-4.709 0-5.883-0.3c-0.648-0.166-1.158-0.633-1.331-1.252-0.315-1.122-0.315-3.463-0.315-3.463s0-2.341 0.315-3.463c0.173-0.619 0.683-1.106 1.331-1.272 1.174-0.301 5.883-0.301 5.883-0.301s4.709 0 5.883 0.3zM14.46 13.89v4.25l3.936-2.125-3.936-2.125z"></path>
<path fill="none" stroke="#000" style="stroke: var(--color2, #000)" stroke-linejoin="miter" stroke-linecap="butt" stroke-miterlimit="4" stroke-width="0.6275" d="M10.039 0.314h11.922c5.371 0 9.726 4.354 9.726 9.726v11.922c0 5.371-4.354 9.726-9.726 9.726h-11.922c-5.371 0-9.726-4.354-9.726-9.726v-11.922c0-5.371 4.354-9.726 9.726-9.726z"></path>
</symbol>
<symbol id="icon-facebook" viewBox="0 0 32 32">
<path d="M19.765 13.347h-2.778v-1.563c0-0.587 0.454-0.724 0.773-0.724s1.96 0 1.96 0v-2.58l-2.7-0.009c-2.997 0-3.679 1.925-3.679 3.156v1.72h-1.733v2.659h1.733c0 3.412 0 7.524 0 7.524h3.646c0 0 0-4.152 0-7.524h2.46l0.318-2.659z"></path>
<path fill="none" stroke="#000" style="stroke: var(--color2, #000)" stroke-linejoin="miter" stroke-linecap="butt" stroke-miterlimit="4" stroke-width="0.6275" d="M10.039 0.314h11.922c5.371 0 9.726 4.354 9.726 9.726v11.922c0 5.371-4.354 9.726-9.726 9.726h-11.922c-5.371 0-9.726-4.354-9.726-9.726v-11.922c0-5.371 4.354-9.726 9.726-9.726z"></path>
</symbol>
<symbol id="icon-linkedin" viewBox="0 0 32 32">
<path d="M11.74 23.529h-3.215v-10.756h3.215v10.756zM23.529 23.529h-3.215v-5.746c0-1.497-0.532-2.243-1.585-2.243-0.835 0-1.364 0.417-1.63 1.253 0 1.357 0 6.736 0 6.736h-3.215c0 0 0.043-9.681 0-10.756h2.538l0.196 2.151h0.066c0.659-1.076 1.713-1.805 3.157-1.805 1.099 0 1.987 0.306 2.666 1.077 0.683 0.771 1.023 1.806 1.023 3.259v6.074z"></path>
<path d="M10.132 11.698c0.918 0 1.661-0.722 1.661-1.614s-0.744-1.613-1.661-1.613-1.661 0.722-1.661 1.613c0 0.891 0.744 1.614 1.661 1.614z"></path>
<path fill="none" stroke="#000" style="stroke: var(--color2, #000)" stroke-linejoin="miter" stroke-linecap="butt" stroke-miterlimit="4" stroke-width="0.6275" d="M10.039 0.314h11.922c5.371 0 9.726 4.354 9.726 9.726v11.922c0 5.371-4.354 9.726-9.726 9.726h-11.922c-5.371 0-9.726-4.354-9.726-9.726v-11.922c0-5.371 4.354-9.726 9.726-9.726z"></path>
</symbol>
<symbol id="icon-play" viewBox="0 0 48 32">
<path fill="none" stroke="#f5f5f5" style="stroke: var(--color1, #f5f5f5)" stroke-linejoin="miter" stroke-linecap="butt" stroke-miterlimit="4" stroke-width="0.7407" d="M18.13 25.441c-0.735 0.528-1.76 0.003-1.76-0.902v-17.078c0-0.905 1.025-1.431 1.76-0.902l11.877 8.539c0.617 0.443 0.617 1.361 0 1.804l-11.877 8.539zM37.364 26.514c-1.223 0-2.214-0.991-2.214-2.214v-16.6c0-1.223 0.991-2.214 2.214-2.214s2.214 0.991 2.214 2.214v16.6c0 1.223-0.991 2.214-2.214 2.214zM45.416 26.514c-1.223 0-2.214-0.991-2.214-2.214v-16.6c0-1.223 0.991-2.214 2.214-2.214s2.214 0.991 2.214 2.214v16.6c0 1.223-0.991 2.214-2.214 2.214z"></path>
<path fill="#d1d1d1" style="fill: var(--color3, #d1d1d1)" d="M5.333 16c0 1.473-1.194 2.667-2.667 2.667s-2.667-1.194-2.667-2.667c0-1.473 1.194-2.667 2.667-2.667s2.667 1.194 2.667 2.667z"></path>
</symbol>
<symbol id="icon-next" viewBox="0 0 59 32">
<path fill="none" stroke="#f5f5f5" style="stroke: var(--color1, #f5f5f5)" stroke-linejoin="round" stroke-linecap="butt" stroke-miterlimit="4" stroke-width="0.7407" d="M28.717 24.243l0.001-0.001 7.711-7.981c0.139-0.144 0.139-0.373-0.002-0.517l-7.767-7.928c-0.297-0.301-0.456-0.677-0.472-1.153v-0.001c-0.016-0.457 0.134-0.845 0.463-1.183 0.289-0.298 0.656-0.452 1.132-0.454s0.843 0.15 1.135 0.446l9.219 9.35c0.167 0.17 0.278 0.345 0.342 0.525 0.069 0.195 0.105 0.409 0.105 0.642s-0.034 0.447-0.101 0.643c-0.063 0.181-0.173 0.356-0.339 0.527l-9.154 9.414c-0.294 0.303-0.659 0.463-1.119 0.478h-0.001c-0.44 0.016-0.816-0.134-1.147-0.47-0.292-0.296-0.446-0.675-0.447-1.167s0.149-0.872 0.439-1.17zM41.897 24.197l0.001-0.001 7.711-7.981c0.139-0.144 0.139-0.373-0.002-0.517l-7.767-7.928c-0.297-0.301-0.457-0.678-0.474-1.153-0.015-0.457 0.136-0.845 0.465-1.184 0.289-0.298 0.657-0.452 1.132-0.454s0.843 0.15 1.135 0.446l9.219 9.35c0.167 0.17 0.277 0.344 0.34 0.524l0.001 0.002c0.070 0.195 0.106 0.408 0.107 0.641s-0.034 0.446-0.102 0.642l-0.001 0.002c-0.062 0.18-0.17 0.356-0.336 0.526l-9.153 9.413c-0.295 0.303-0.659 0.463-1.117 0.478l-0.001 0c-0.442 0.016-0.818-0.135-1.149-0.47-0.292-0.296-0.446-0.675-0.448-1.167s0.149-0.872 0.439-1.17z"></path>
<path fill="none" stroke="#f5f5f5" style="stroke: var(--color1, #f5f5f5)" stroke-linejoin="miter" stroke-linecap="round" stroke-miterlimit="4" stroke-width="0.7407" d="M57.894 4.942v22.116"></path>
<path fill="#d1d1d1" style="fill: var(--color3, #d1d1d1)" d="M16 16c0 1.473-1.194 2.667-2.667 2.667s-2.667-1.194-2.667-2.667c0-1.473 1.194-2.667 2.667-2.667s2.667 1.194 2.667 2.667z"></path>
<path fill="#d1d1d1" style="fill: var(--color3, #d1d1d1)" d="M5.333 16c0 1.473-1.194 2.667-2.667 2.667s-2.667-1.194-2.667-2.667c0-1.473 1.194-2.667 2.667-2.667s2.667 1.194 2.667 2.667z"></path>
</symbol>
<symbol id="icon-previous" viewBox="0 0 69 32">
<path fill="none" stroke="#f5f5f5" style="stroke: var(--color1, #f5f5f5)" stroke-linejoin="round" stroke-linecap="butt" stroke-miterlimit="4" stroke-width="0.7407" d="M67.283 24.243l-0.001-0.001-7.711-7.981c-0.139-0.144-0.139-0.373 0.002-0.517l7.767-7.928c0.297-0.301 0.456-0.677 0.472-1.153v-0.001c0.016-0.457-0.134-0.845-0.463-1.183-0.289-0.298-0.656-0.452-1.132-0.454s-0.843 0.15-1.135 0.446l-9.219 9.35c-0.167 0.17-0.278 0.345-0.342 0.525-0.069 0.195-0.105 0.409-0.105 0.642s0.034 0.447 0.101 0.643c0.063 0.181 0.173 0.356 0.339 0.527l9.154 9.414c0.294 0.303 0.659 0.463 1.119 0.478h0.001c0.44 0.016 0.816-0.134 1.147-0.47 0.292-0.296 0.446-0.675 0.447-1.167s-0.149-0.872-0.439-1.17zM54.103 24.197l-0.001-0.001-7.711-7.981c-0.139-0.144-0.139-0.373 0.002-0.517l7.767-7.928c0.297-0.301 0.457-0.678 0.474-1.153 0.015-0.457-0.136-0.845-0.465-1.184-0.289-0.298-0.657-0.452-1.132-0.454s-0.843 0.15-1.135 0.446l-9.219 9.35c-0.167 0.17-0.277 0.344-0.34 0.524l-0.001 0.002c-0.070 0.195-0.106 0.408-0.107 0.641s0.034 0.446 0.102 0.642l0.001 0.002c0.062 0.18 0.17 0.356 0.336 0.526l9.153 9.413c0.295 0.303 0.659 0.463 1.117 0.478l0.001 0c0.442 0.016 0.818-0.135 1.149-0.47 0.292-0.296 0.446-0.675 0.448-1.167s-0.149-0.872-0.439-1.17z"></path>
<path fill="none" stroke="#f5f5f5" style="stroke: var(--color1, #f5f5f5)" stroke-linejoin="miter" stroke-linecap="round" stroke-miterlimit="4" stroke-width="0.7407" d="M38.106 4.942v22.116"></path>
<path fill="#d1d1d1" style="fill: var(--color3, #d1d1d1)" d="M26.667 16c0 1.473-1.194 2.667-2.667 2.667s-2.667-1.194-2.667-2.667c0-1.473 1.194-2.667 2.667-2.667s2.667 1.194 2.667 2.667z"></path>
<path fill="#d1d1d1" style="fill: var(--color3, #d1d1d1)" d="M16 16c0 1.473-1.194 2.667-2.667 2.667s-2.667-1.194-2.667-2.667c0-1.473 1.194-2.667 2.667-2.667s2.667 1.194 2.667 2.667z"></path>
<path fill="#d1d1d1" style="fill: var(--color3, #d1d1d1)" d="M5.333 16c0 1.473-1.194 2.667-2.667 2.667s-2.667-1.194-2.667-2.667c0-1.473 1.194-2.667 2.667-2.667s2.667 1.194 2.667 2.667z"></path>
</symbol>
<symbol id="icon-mute" viewBox="0 0 32 32">
<path fill="none" stroke="#f5f5f5" style="stroke: var(--color1, #f5f5f5)" stroke-linejoin="miter" stroke-linecap="butt" stroke-miterlimit="4" stroke-width="0.7718" d="M17.792 3.063l0.001-0.001c0.424-0.406 1.023-0.502 1.531-0.256 0.515 0.25 0.862 0.807 0.862 1.44v23.51c0 0.635-0.348 1.196-0.86 1.439s-1.111 0.15-1.533-0.255l-0.001-0.001-7.82-7.447h-4.029c-1.779 0-3.271-1.559-3.271-3.533v-3.918c0-1.974 1.492-3.532 3.271-3.532h4.029l7.82-7.447z"></path>
<path fill="none" stroke="#f5f5f5" style="stroke: var(--color1, #f5f5f5)" stroke-linejoin="miter" stroke-linecap="round" stroke-miterlimit="4" stroke-width="0.7718" d="M22.857 16h6.857"></path>
</symbol>
<symbol id="icon-soundOn" viewBox="0 0 32 32">
<path fill="none" stroke="#f5f5f5" style="stroke: var(--color1, #f5f5f5)" stroke-linejoin="miter" stroke-linecap="butt" stroke-miterlimit="4" stroke-width="0.7718" d="M17.792 3.063l0.001-0.001c0.424-0.406 1.023-0.502 1.531-0.256 0.515 0.25 0.862 0.807 0.862 1.44v23.51c0 0.635-0.348 1.196-0.86 1.439s-1.111 0.15-1.533-0.255l-0.001-0.001-7.82-7.447h-4.029c-1.779 0-3.271-1.559-3.271-3.533v-3.918c0-1.974 1.492-3.532 3.271-3.532h4.029l7.82-7.447z"></path>
<path fill="none" stroke="#f5f5f5" style="stroke: var(--color1, #f5f5f5)" stroke-linejoin="miter" stroke-linecap="round" stroke-miterlimit="4" stroke-width="0.7718" d="M26.286 12.571v6.857M22.857 16h6.857"></path>
</symbol>
<symbol id="icon-processor" viewBox="0 0 32 32">
<path d="M12.705 11.2c-0.428 0.030-0.928 0.303-1.22 0.658-0.266 0.322-0.485 0.802-0.399 1.267 0.468 0.014 0.951-0.265 1.231-0.627 0.262-0.336 0.46-0.813 0.388-1.299z"></path>
<path d="M14.396 13.884c-0.411-0.514-0.988-0.812-1.534-0.812-0.72 0-1.025 0.344-1.525 0.344-0.516 0-0.908-0.342-1.53-0.342-0.612 0-1.263 0.372-1.676 1.010-0.581 0.897-0.481 2.583 0.46 4.020 0.337 0.514 0.786 1.092 1.374 1.097 0.523 0.005 0.671-0.334 1.38-0.338s0.843 0.343 1.366 0.337c0.589-0.005 1.063-0.645 1.399-1.159 0.241-0.369 0.331-0.554 0.518-0.97-1.361-0.517-1.579-2.445-0.232-3.186z"></path>
<path fill="none" stroke="#000" style="stroke: var(--color1, #000)" stroke-linejoin="miter" stroke-linecap="round" stroke-miterlimit="4" stroke-width="0.6857" d="M8 27.886v2.743"></path>
<path fill="none" stroke="#000" style="stroke: var(--color1, #000)" stroke-linejoin="miter" stroke-linecap="round" stroke-miterlimit="4" stroke-width="0.6857" d="M11.2 27.886v2.743"></path>
<path fill="none" stroke="#000" style="stroke: var(--color1, #000)" stroke-linejoin="miter" stroke-linecap="round" stroke-miterlimit="4" stroke-width="0.6857" d="M14.4 27.886v2.743"></path>
<path fill="none" stroke="#000" style="stroke: var(--color1, #000)" stroke-linejoin="miter" stroke-linecap="round" stroke-miterlimit="4" stroke-width="0.6857" d="M17.6 27.886v2.743"></path>
<path fill="none" stroke="#000" style="stroke: var(--color1, #000)" stroke-linejoin="miter" stroke-linecap="round" stroke-miterlimit="4" stroke-width="0.6857" d="M20.8 27.886v2.743"></path>
<path fill="none" stroke="#000" style="stroke: var(--color1, #000)" stroke-linejoin="miter" stroke-linecap="round" stroke-miterlimit="4" stroke-width="0.6857" d="M24 27.886v2.743"></path>
<path fill="none" stroke="#000" style="stroke: var(--color1, #000)" stroke-linejoin="miter" stroke-linecap="round" stroke-miterlimit="4" stroke-width="0.6857" d="M1.371 24h2.743"></path>
<path fill="none" stroke="#000" style="stroke: var(--color1, #000)" stroke-linejoin="miter" stroke-linecap="round" stroke-miterlimit="4" stroke-width="0.6857" d="M1.371 20.8h2.743"></path>
<path fill="none" stroke="#000" style="stroke: var(--color1, #000)" stroke-linejoin="miter" stroke-linecap="round" stroke-miterlimit="4" stroke-width="0.6857" d="M1.371 17.6h2.743"></path>
<path fill="none" stroke="#000" style="stroke: var(--color1, #000)" stroke-linejoin="miter" stroke-linecap="round" stroke-miterlimit="4" stroke-width="0.6857" d="M1.371 14.4h2.743"></path>
<path fill="none" stroke="#000" style="stroke: var(--color1, #000)" stroke-linejoin="miter" stroke-linecap="round" stroke-miterlimit="4" stroke-width="0.6857" d="M1.371 11.2h2.743"></path>
<path fill="none" stroke="#000" style="stroke: var(--color1, #000)" stroke-linejoin="miter" stroke-linecap="round" stroke-miterlimit="4" stroke-width="0.6857" d="M1.371 8h2.743"></path>
<path fill="none" stroke="#000" style="stroke: var(--color1, #000)" stroke-linejoin="miter" stroke-linecap="round" stroke-miterlimit="4" stroke-width="0.6857" d="M27.886 24h2.743"></path>
<path fill="none" stroke="#000" style="stroke: var(--color1, #000)" stroke-linejoin="miter" stroke-linecap="round" stroke-miterlimit="4" stroke-width="0.6857" d="M27.886 20.8h2.743"></path>
<path fill="none" stroke="#000" style="stroke: var(--color1, #000)" stroke-linejoin="miter" stroke-linecap="round" stroke-miterlimit="4" stroke-width="0.6857" d="M27.886 17.6h2.743"></path>
<path fill="none" stroke="#000" style="stroke: var(--color1, #000)" stroke-linejoin="miter" stroke-linecap="round" stroke-miterlimit="4" stroke-width="0.6857" d="M27.886 14.4h2.743"></path>
<path fill="none" stroke="#000" style="stroke: var(--color1, #000)" stroke-linejoin="miter" stroke-linecap="round" stroke-miterlimit="4" stroke-width="0.6857" d="M27.886 11.2h2.743"></path>
<path fill="none" stroke="#000" style="stroke: var(--color1, #000)" stroke-linejoin="miter" stroke-linecap="round" stroke-miterlimit="4" stroke-width="0.6857" d="M27.886 8h2.743"></path>
<path fill="none" stroke="#000" style="stroke: var(--color1, #000)" stroke-linejoin="miter" stroke-linecap="round" stroke-miterlimit="4" stroke-width="0.6857" d="M8 1.371v2.743"></path>
<path fill="none" stroke="#000" style="stroke: var(--color1, #000)" stroke-linejoin="miter" stroke-linecap="round" stroke-miterlimit="4" stroke-width="0.6857" d="M11.2 1.371v2.743"></path>
<path fill="none" stroke="#000" style="stroke: var(--color1, #000)" stroke-linejoin="miter" stroke-linecap="round" stroke-miterlimit="4" stroke-width="0.6857" d="M14.4 1.371v2.743"></path>
<path fill="none" stroke="#000" style="stroke: var(--color1, #000)" stroke-linejoin="miter" stroke-linecap="round" stroke-miterlimit="4" stroke-width="0.6857" d="M17.6 1.371v2.743"></path>
<path fill="none" stroke="#000" style="stroke: var(--color1, #000)" stroke-linejoin="miter" stroke-linecap="round" stroke-miterlimit="4" stroke-width="0.6857" d="M20.8 1.371v2.743"></path>
<path fill="none" stroke="#000" style="stroke: var(--color1, #000)" stroke-linejoin="miter" stroke-linecap="round" stroke-miterlimit="4" stroke-width="0.6857" d="M24 1.371v2.743"></path>
<path fill="none" stroke="#000" style="stroke: var(--color1, #000)" stroke-linejoin="miter" stroke-linecap="butt" stroke-miterlimit="4" stroke-width="0.6857" d="M5.714 4.457h20.571c0.694 0 1.257 0.563 1.257 1.257v20.571c0 0.694-0.563 1.257-1.257 1.257h-20.571c-0.694 0-1.257-0.563-1.257-1.257v-20.571c0-0.694 0.563-1.257 1.257-1.257z"></path>
<path d="M21.952 13.825l-1.293 4.461h-0.653l-1.037-3.59-1.075 3.59-0.646 0.006-1.248-4.467h0.621l0.973 3.782 1.075-3.782h0.653l1.024 3.77 0.979-3.77h0.627zM22.34 14.19v-0.531h1.203v4.627h-0.589v-4.096h-0.614z"></path>
</symbol>
<symbol id="icon-supports" viewBox="0 0 32 32">
<path stroke-linejoin="miter" stroke-linecap="butt" stroke-miterlimit="4" stroke-width="0.75" d="M17.875 16c0 1.174-0.951 2.125-2.125 2.125s-2.125-0.951-2.125-2.125c0-1.174 0.951-2.125 2.125-2.125s2.125 0.951 2.125 2.125z"></path>
<path stroke-linejoin="miter" stroke-linecap="round" stroke-miterlimit="4" stroke-width="0.75" d="M12.75 0.5c-6.375 1.5-10.625 5.75-12.25 12.375"></path>
<path stroke-linejoin="miter" stroke-linecap="round" stroke-miterlimit="4" stroke-width="0.75" d="M13.75 5.875c-3.5 0.875-6.75 3.5-7.875 8.125"></path>
<path stroke-linejoin="miter" stroke-linecap="round" stroke-miterlimit="4" stroke-width="0.75" d="M18.75 0.5c6.375 1.5 10.625 5.75 12.25 12.375"></path>
<path stroke-linejoin="miter" stroke-linecap="round" stroke-miterlimit="4" stroke-width="0.75" d="M17.75 5.875c3.5 0.875 6.75 3.5 7.875 8.125"></path>
<path stroke-linejoin="miter" stroke-linecap="round" stroke-miterlimit="4" stroke-width="0.75" d="M12.75 31.5c-6.375-1.5-10.625-5.75-12.25-12.375"></path>
<path stroke-linejoin="miter" stroke-linecap="round" stroke-miterlimit="4" stroke-width="0.75" d="M13.75 26.125c-3.5-0.875-6.75-3.5-7.875-8.125"></path>
<path stroke-linejoin="miter" stroke-linecap="round" stroke-miterlimit="4" stroke-width="0.75" d="M18.75 31.5c6.375-1.5 10.625-5.75 12.25-12.375"></path>
<path stroke-linejoin="miter" stroke-linecap="round" stroke-miterlimit="4" stroke-width="0.75" d="M17.75 26.125c3.5-0.875 6.75-3.5 7.875-8.125"></path>
</symbol>
  <symbol fill="none" xmlns="http://www.w3.org/2000/svg" viewBox="0 0 20 20" id="icon-burger">
    <line x1="0.277778" y1="5.72222" x2="19.7222" y2="5.72222" stroke="#F5F5F5" stroke-width="0.555556" stroke-linecap="round"></line>
    <line x1="0.277778" y1="9.72222" x2="19.7222" y2="9.72222" stroke="#F5F5F5" stroke-width="0.555556" stroke-linecap="round"></line>
    <line x1="0.277778" y1="13.7222" x2="19.7222" y2="13.7222" stroke="#F5F5F5" stroke-width="0.555556" stroke-linecap="round"></line>
  </symbol>
  <symbol xmlns="http://www.w3.org/2000/svg" viewBox="0 0 48 48" id="icon-close">
    <path d="m12.45 37.65-2.1-2.1L21.9 24 10.35 12.45l2.1-2.1L24 21.9l11.55-11.55 2.1 2.1L26.1 24l11.55 11.55-2.1 2.1L24 26.1Z"></path>
  </symbol>
</defs>
</svg>
