<svg width="140" height="140" viewBox="0 0 140 140" fill="none" xmlns="http://www.w3.org/2000/svg">
<circle cx="70" cy="70" r="8.5" fill="url(#paint0_linear_142_219)" stroke="url(#paint1_linear_142_219)" stroke-width="3"/>
<path d="M58 8C32.5 14 15.5 31 9 57.5" stroke="url(#paint2_linear_142_219)" stroke-width="3" stroke-linecap="round"/>
<path d="M62 29.5C48 33 35 43.5 30.5 62" stroke="url(#paint3_linear_142_219)" stroke-width="3" stroke-linecap="round"/>
<path d="M82 8C107.5 14 124.5 31 131 57.5" stroke="url(#paint4_linear_142_219)" stroke-width="3" stroke-linecap="round"/>
<path d="M78 29.5C92 33 105 43.5 109.5 62" stroke="url(#paint5_linear_142_219)" stroke-width="3" stroke-linecap="round"/>
<path d="M58 132C32.5 126 15.5 109 9 82.5" stroke="url(#paint6_linear_142_219)" stroke-width="3" stroke-linecap="round"/>
<path d="M62 110.5C48 107 35 96.5 30.5 78" stroke="url(#paint7_linear_142_219)" stroke-width="3" stroke-linecap="round"/>
<path d="M82 132C107.5 126 124.5 109 131 82.5" stroke="url(#paint8_linear_142_219)" stroke-width="3" stroke-linecap="round"/>
<path d="M78 110.5C92 107 105 96.5 109.5 78" stroke="url(#paint9_linear_142_219)" stroke-width="3" stroke-linecap="round"/>
<defs>
<linearGradient id="paint0_linear_142_219" x1="56.2857" y1="85.1685" x2="85.2366" y2="78.6931" gradientUnits="userSpaceOnUse">
<stop stop-color="#48C8FF"/>
<stop offset="1" stop-color="#FF5BCB"/>
</linearGradient>
<linearGradient id="paint1_linear_142_219" x1="56.2857" y1="85.1685" x2="85.2366" y2="78.6931" gradientUnits="userSpaceOnUse">
<stop stop-color="#48C8FF"/>
<stop offset="1" stop-color="#FF5BCB"/>
</linearGradient>
<linearGradient id="paint2_linear_142_219" x1="-0.10003" y1="70.292" x2="70.8976" y2="54.5725" gradientUnits="userSpaceOnUse">
<stop stop-color="#48C8FF"/>
<stop offset="1" stop-color="#FF5BCB"/>
</linearGradient>
<linearGradient id="paint3_linear_142_219" x1="24.65" y1="70.3988" x2="70.3796" y2="60.4853" gradientUnits="userSpaceOnUse">
<stop stop-color="#48C8FF"/>
<stop offset="1" stop-color="#FF5BCB"/>
</linearGradient>
<linearGradient id="paint4_linear_142_219" x1="140.1" y1="70.292" x2="69.1024" y2="54.5725" gradientUnits="userSpaceOnUse">
<stop stop-color="#48C8FF"/>
<stop offset="1" stop-color="#FF5BCB"/>
</linearGradient>
<linearGradient id="paint5_linear_142_219" x1="115.35" y1="70.3988" x2="69.6204" y2="60.4853" gradientUnits="userSpaceOnUse">
<stop stop-color="#48C8FF"/>
<stop offset="1" stop-color="#FF5BCB"/>
</linearGradient>
<linearGradient id="paint6_linear_142_219" x1="-0.10003" y1="69.708" x2="70.8976" y2="85.4275" gradientUnits="userSpaceOnUse">
<stop stop-color="#48C8FF"/>
<stop offset="1" stop-color="#FF5BCB"/>
</linearGradient>
<linearGradient id="paint7_linear_142_219" x1="24.65" y1="69.6012" x2="70.3796" y2="79.5147" gradientUnits="userSpaceOnUse">
<stop stop-color="#48C8FF"/>
<stop offset="1" stop-color="#FF5BCB"/>
</linearGradient>
<linearGradient id="paint8_linear_142_219" x1="140.1" y1="69.708" x2="69.1024" y2="85.4275" gradientUnits="userSpaceOnUse">
<stop stop-color="#48C8FF"/>
<stop offset="1" stop-color="#FF5BCB"/>
</linearGradient>
<linearGradient id="paint9_linear_142_219" x1="115.35" y1="69.6012" x2="69.6204" y2="79.5147" gradientUnits="userSpaceOnUse">
<stop stop-color="#48C8FF"/>
<stop offset="1" stop-color="#FF5BCB"/>
</linearGradient>
</defs>
</svg>
