<svg version="1.0" xmlns="http://www.w3.org/2000/svg" width="933.333" height="933.333" viewBox="0 0 700 700"><path d="M327.5.6C267 5.5 214.1 22.5 164.9 53c-37.2 23-73.7 57.3-99.7 93.7-34.3 47.9-55 101.8-62.8 162.8-2.5 19.5-2.5 61.5 0 81 7.8 61 28.5 114.9 62.8 162.8 23.7 33.1 56.1 64.5 89.8 87.1 46.7 31.3 96.8 49.9 154.5 57.2 19.5 2.5 61.5 2.5 81 0 70.7-9 132.4-35.7 185-80.1 13.5-11.4 36.4-34.7 46.7-47.5 42.1-52.7 66.7-111.3 75.4-179.5 2.5-19.5 2.5-61.5 0-81-9-70.6-35.8-132.5-80.1-185-11.9-14.1-34.9-36.6-49-47.8-49.9-40-109.3-65.2-173.9-73.8C380 1 340-.4 327.5.6zM373 8c70.9 5.3 132.5 28.9 189 72.6 14.3 11 43.7 40.2 55.4 54.9 38.1 47.8 62.7 103.9 71.6 163.7 11 73.7-2.6 150.3-38.2 215.2-8.2 15-22.7 36.7-33.4 50.1-11.3 14.1-38.8 41.6-52.9 52.9-72 57.5-162.5 83.5-254.5 73-62.6-7.1-124.2-32.9-174.5-73-14.1-11.3-41.6-38.8-52.9-52.9C42.1 513.8 17.2 454 9.3 389c-2.3-19.9-2.3-58.1 0-78 9.3-76.7 41.9-145.2 95.1-199.8 20.2-20.7 38.9-35.9 63.6-51.6C227.5 21.7 302.6 2.8 373 8z"/><path d="M280 250.5V282h-28.1c-32.7 0-43.6 1.2-60.2 6.7-26.3 8.7-46.3 27-55.2 50.6-5.6 15.1-6.9 37.2-3 54.7 2.1 9.5 10 25.8 15.9 33 10.2 12.2 24.7 21.9 41.4 27.6 18.8 6.4 21 6.6 82 7.1l55.2.5v-41.9l-5.5-3.7c-11-7.3-19.4-18.1-23.7-30.4-3.3-9.6-3.3-26.8 0-36.4 4.3-12.3 15.1-25.8 24.8-31l4.4-2.3V219h-48v31.5zm0 121.6v66.1l-27.2-.5c-30.2-.5-35-1.2-44.7-7-15.2-9.1-23.5-26.7-24.8-52.3-1.6-32.3 7.6-56 25.6-65.8 10.2-5.5 17-6.5 45.4-6.5l25.7-.1v66.1zm97-105.3v47.8l7.6 4.9c12.3 8 21.2 20.3 24.8 34.2 2 7.7 2 21.2.1 28.7-3.7 14-13.6 27.3-26.2 35.1l-6.3 3.8v40.9l55.3-.5c60.4-.5 62.9-.7 81.2-6.8 30-10.1 49.4-29.7 57.7-58.4 2-7 2.3-10.1 2.2-25 0-15.5-.3-17.8-2.7-25.8-7.9-25.8-24.8-44.1-50.2-54.5-18.3-7.4-31-9.2-67.2-9.2H425v-63h-48v47.8zm110 41.9c13.8 5.1 21.6 11.9 27.4 23.7 5.9 12.3 7.1 18.7 7.1 39.6 0 16.2-.3 19.4-2.3 26.3-6 20.9-16.8 32.7-34.3 37.4-5.3 1.4-11 1.7-32.9 1.8h-26.5l-.3-65.8-.2-65.9 28.2.4c25.5.4 28.8.6 33.8 2.5z"/><path d="M345.9 340.3c-2.5.7-6.6 2.8-9 4.5-19.3 14.3-14.1 44.2 8.9 50.8 14.3 4.2 30.9-4.7 35.1-18.6 1.4-4.8 1.4-13.2 0-18-4.1-13.7-20.9-22.6-35-18.7z"/></svg>