<?xml version="1.0" standalone="no"?>
<!DOCTYPE svg PUBLIC "-//W3C//DTD SVG 20010904//EN"
 "http://www.w3.org/TR/2001/REC-SVG-20010904/DTD/svg10.dtd">
<svg version="1.0" xmlns="http://www.w3.org/2000/svg"
 width="700.000000pt" height="700.000000pt" viewBox="0 0 700.000000 700.000000"
 preserveAspectRatio="xMidYMid meet">
<metadata>
Created by potrace 1.14, written by Peter Selinger 2001-2017
</metadata>
<g transform="translate(0.000000,700.000000) scale(0.100000,-0.100000)"
fill="#000000" stroke="none">
<path d="M3275 6994 c-605 -49 -1134 -219 -1626 -524 -372 -230 -737 -573
-997 -937 -343 -479 -550 -1018 -628 -1628 -25 -195 -25 -615 0 -810 78 -610
285 -1149 628 -1628 237 -331 561 -645 898 -871 467 -313 968 -499 1545 -572
195 -25 615 -25 810 0 707 90 1324 357 1850 801 135 114 364 347 467 475 421
527 667 1113 754 1795 25 195 25 615 0 810 -90 706 -358 1325 -801 1850 -119
141 -349 366 -490 478 -499 400 -1093 652 -1739 738 -146 19 -546 33 -671 23z
m455 -74 c709 -53 1325 -289 1890 -726 143 -110 437 -402 554 -549 381 -478
627 -1039 716 -1637 110 -737 -26 -1503 -382 -2152 -82 -150 -227 -367 -334
-501 -113 -141 -388 -416 -529 -529 -720 -575 -1625 -835 -2545 -730 -626 71
-1242 329 -1745 730 -141 113 -416 388 -529 529 -405 507 -654 1105 -733 1755
-23 199 -23 581 0 780 93 767 419 1452 951 1998 202 207 389 359 636 516 595
379 1346 568 2050 516z"/>
<path d="M2800 4495 l0 -315 -281 0 c-327 0 -436 -12 -602 -67 -263 -87 -463
-270 -552 -506 -56 -151 -69 -372 -30 -547 21 -95 100 -258 159 -330 102 -122
247 -219 414 -276 188 -64 210 -66 820 -71 l552 -5 0 210 0 209 -55 37 c-110
73 -194 181 -237 304 -33 96 -33 268 0 364 43 123 151 258 248 310 l44 23 0
487 0 488 -240 0 -240 0 0 -315z m0 -1216 l0 -661 -272 5 c-302 5 -350 12
-447 70 -152 91 -235 267 -248 523 -16 323 76 560 256 658 102 55 170 65 454
65 l257 1 0 -661z"/>
<path d="M3770 4332 l0 -478 76 -49 c123 -80 212 -203 248 -342 20 -77 20
-212 1 -287 -37 -140 -136 -273 -262 -351 l-63 -38 0 -204 0 -205 553 5 c604
5 629 7 812 68 300 101 494 297 577 584 20 70 23 101 22 250 0 155 -3 178 -27
258 -79 258 -248 441 -502 545 -183 74 -310 92 -672 92 l-283 0 0 315 0 315
-240 0 -240 0 0 -478z m1100 -419 c138 -51 216 -119 274 -237 59 -123 71 -187
71 -396 0 -162 -3 -194 -23 -263 -60 -209 -168 -327 -343 -374 -53 -14 -110
-17 -329 -18 l-265 0 -3 658 -2 659 282 -4 c255 -4 288 -6 338 -25z"/>
<path d="M3459 3597 c-25 -7 -66 -28 -90 -45 -193 -143 -141 -442 89 -508 143
-42 309 47 351 186 14 48 14 132 0 180 -41 137 -209 226 -350 187z"/>
</g>
</svg>
