<svg aria-hidden="true" style="position:absolute;width:0;height:0" xmlns="http://www.w3.org/2000/svg" overflow="hidden"><defs><symbol id="icon-logo" viewBox="0 0 32 32"><path fill="var(--color1, #f5f5f5)" d="M10.821 13.988H12.8v6.017h-1.979c-.359 0-.691-.053-.998-.158a2.067 2.067 0 01-.776-.538 2.722 2.722 0 01-.507-.934c-.116-.38-.174-.839-.174-1.378s.058-.998.174-1.378c.127-.38.296-.691.507-.934.222-.243.48-.417.776-.523.306-.116.639-.174.998-.174zm-1.995 6.84c.602.19 1.267.285 1.995.285h4.196v-1.911a2.638 2.638 0 010-4.754v-4.419H12.8v2.85h-1.979c-.728 0-1.393.095-1.995.285-.591.19-1.098.465-1.52.823s-.75.792-.982 1.298c-.222.507-.333 1.077-.333 1.71s.111 1.203.333 1.71c.232.507.559.94.982 1.298s.929.633 1.52.823zm8.401-1.587v1.872h4.196c.728 0 1.388-.095 1.979-.285.602-.19 1.114-.465 1.536-.823s.744-.792.966-1.298c.232-.507.348-1.077.348-1.71s-.116-1.203-.348-1.71c-.222-.507-.544-.94-.966-1.298s-.934-.633-1.536-.823a6.448 6.448 0 00-1.979-.285h-1.979v-2.85h-2.217v4.379a2.64 2.64 0 010 4.834zm5.178.606a2.894 2.894 0 01-.982.158h-1.979v-6.017h1.979c.359 0 .686.058.982.174.306.106.565.28.776.523.222.243.391.554.507.934.127.38.19.839.19 1.378s-.063.998-.19 1.378c-.116.38-.285.691-.507.934-.211.243-.47.422-.776.538z"/><path fill="var(--color1, #f5f5f5)" d="M17.485 16.825a1.32 1.32 0 11-2.64 0 1.32 1.32 0 012.64 0z"/><path fill="none" stroke="var(--color1, #f5f5f5)" stroke-width=".33" d="M31.835 16c0 8.745-7.09 15.835-15.835 15.835S.165 24.745.165 16C.165 7.255 7.255.165 16 .165S31.835 7.255 31.835 16z"/></symbol><symbol id="icon-audio" viewBox="0 0 32 32"><path stroke-width=".686" d="M17.943 16a1.943 1.943 0 11-3.886 0 1.943 1.943 0 013.886 0z"/><path stroke-linecap="round" stroke-width=".686" d="M13.257 1.829C7.428 3.2 3.543 7.086 2.057 13.143m12.114-6.4c-3.2.8-6.171 3.2-7.2 7.429M18.743 1.829c5.829 1.371 9.714 5.257 11.2 11.314m-12.114-6.4c3.2.8 6.171 3.2 7.2 7.429M13.257 30.171c-5.829-1.371-9.714-5.257-11.2-11.314m12.114 6.4c-3.2-.8-6.171-3.2-7.2-7.429m11.772 12.343c5.829-1.371 9.714-5.257 11.2-11.314m-12.114 6.4c3.2-.8 6.171-3.2 7.2-7.429"/></symbol><symbol id="icon-chip" viewBox="0 0 32 32"><path d="M12.705 11.2c-.428.03-.928.303-1.22.658-.266.322-.485.802-.399 1.267.468.014.951-.265 1.231-.627.262-.336.46-.813.388-1.299z"/><path d="M14.396 13.884c-.411-.514-.988-.812-1.534-.812-.72 0-1.025.344-1.525.344-.516 0-.908-.342-1.53-.342-.612 0-1.263.372-1.676 1.01-.581.897-.481 2.583.46 4.02.337.514.786 1.092 1.374 1.097.523.005.671-.334 1.38-.338s.843.343 1.366.337c.589-.005 1.063-.645 1.399-1.159a5.79 5.79 0 00.518-.97c-1.361-.517-1.579-2.445-.232-3.186z"/><path fill="none" stroke="var(--color2, #000)" stroke-linecap="round" stroke-width=".686" d="M8 27.886v2.743m3.2-2.743v2.743m3.2-2.743v2.743m3.2-2.743v2.743m3.2-2.743v2.743m3.2-2.743v2.743M1.371 24h2.743m-2.743-3.2h2.743m-2.743-3.2h2.743m-2.743-3.2h2.743m-2.743-3.2h2.743M1.371 8h2.743m23.772 16h2.743m-2.743-3.2h2.743m-2.743-3.2h2.743m-2.743-3.2h2.743m-2.743-3.2h2.743M27.886 8h2.743M8 1.371v2.743m3.2-2.743v2.743m3.2-2.743v2.743m3.2-2.743v2.743m3.2-2.743v2.743M24 1.371v2.743"/><path fill="none" stroke="var(--color2, #000)" stroke-width=".686" d="M5.714 4.457h20.571c.694 0 1.257.563 1.257 1.257v20.571c0 .694-.563 1.257-1.257 1.257H5.714a1.257 1.257 0 01-1.257-1.257V5.714c0-.694.563-1.257 1.257-1.257z"/><path d="M21.952 13.825l-1.293 4.461h-.653l-1.037-3.59-1.075 3.59-.646.006L16 13.825h.621l.973 3.782 1.075-3.782h.653l1.024 3.77.979-3.77h.627zm.388.365v-.531h1.203v4.627h-.589V14.19h-.614z"/></symbol><symbol id="icon-phone" viewBox="0 0 32 32"><path fill="none" stroke="var(--color2, #000)" stroke-width=".686" d="M7.314 28.914h17.371M7.314 2.857h17.371M9.829.343h12.343c1.199 0 2.171.972 2.171 2.171v26.971a2.171 2.171 0 01-2.171 2.171H9.829a2.171 2.171 0 01-2.171-2.171V2.514c0-1.199.972-2.171 2.171-2.171z"/><path d="M12.947 17.852c-.548-.704-1.318-1.113-2.045-1.113-.96 0-1.366.471-2.033.471-.688 0-1.21-.47-2.04-.47-.816 0-1.684.511-2.234 1.384-.774 1.23-.642 3.543.613 5.513.449.705 1.048 1.498 1.832 1.504.698.007.894-.459 1.84-.464s1.125.47 1.821.462c.785-.006 1.417-.885 1.866-1.59.322-.505.442-.76.691-1.33-1.815-.708-2.106-3.354-.31-4.369z"/><path d="M10.692 14.171c-.571.04-1.238.415-1.626.902-.355.442-.646 1.099-.533 1.738.624.02 1.268-.363 1.641-.859.349-.462.613-1.114.518-1.781zM25.2 18.057c.384 0 .72-.333.72-.715v-1.671h.48c.288 0 .48-.191.48-.478v-4.772h-5.761v4.772c0 .287.192.478.48.478h.48v1.671c0 .382.335.715.72.715s.72-.333.72-.715v-1.671h.961v1.671c0 .382.335.715.72.715zm2.8-2.971c.305 0 .571-.319.571-.685V11.2c0-.364-.266-.685-.571-.685s-.571.321-.571.685v3.201c0 .366.266.685.571.685zm-8 0c.305 0 .571-.319.571-.685V11.2c0-.364-.266-.685-.571-.685s-.571.321-.571.685v3.201c0 .366.266.685.571.685zm6.304-8.385a.23.23 0 00-.335 0l-.674.668a2.865 2.865 0 00-1.288-.286h-.014a2.865 2.865 0 00-1.288.286l-.674-.668c-.096-.096-.239-.096-.335 0s-.096.237 0 .333l.623.62a2.557 2.557 0 00-.541.483 2.794 2.794 0 00-.654 1.658l-.001.02a2.776 2.776 0 00-.003.129h5.761l-.003-.129-.001-.02a2.792 2.792 0 00-.654-1.658 2.557 2.557 0 00-.541-.483l.623-.62a.229.229 0 000-.333zM22.799 9.11a.359.359 0 110-.716.359.359 0 110 .716zm2.402 0a.359.359 0 110-.716.359.359 0 110 .716z"/></symbol><symbol id="icon-battery" viewBox="0 0 32 32"><path fill="none" stroke="var(--color2, #000)" stroke-width=".686" d="M19.2 2.971V.914a.458.458 0 00-.457-.457h-5.486a.458.458 0 00-.457.457v2.057"/><path fill="none" stroke="var(--color2, #000)" stroke-width=".686" d="M9.371 2.629h13.257c.694 0 1.257.563 1.257 1.257V30.4c0 .694-.563 1.257-1.257 1.257H9.371A1.257 1.257 0 018.114 30.4V3.886c0-.694.563-1.257 1.257-1.257zm-1.6 21.714h16.457"/><path d="M9.745 17.819c.542-.435.966-.791 1.274-1.069.307-.282.565-.574.774-.877.213-.307.32-.608.32-.902 0-.277-.068-.495-.205-.653-.132-.162-.348-.243-.646-.243-.29 0-.516.092-.678.275-.158.179-.243.42-.256.723h-.563c.017-.478.162-.847.435-1.107s.625-.39 1.056-.39c.439 0 .787.122 1.043.365.26.243.39.578.39 1.005 0 .354-.107.7-.32 1.037a4.55 4.55 0 01-.717.883c-.269.252-.612.546-1.03.883h2.202v.486H9.746v-.416zm3.681 0c.542-.435.966-.791 1.274-1.069.307-.282.565-.574.774-.877.213-.307.32-.608.32-.902 0-.277-.068-.495-.205-.653-.132-.162-.348-.243-.646-.243-.29 0-.516.092-.678.275-.158.179-.243.42-.256.723h-.563c.017-.478.162-.847.435-1.107s.625-.39 1.056-.39c.439 0 .787.122 1.043.365.26.243.39.578.39 1.005 0 .354-.107.7-.32 1.037a4.55 4.55 0 01-.717.883c-.269.252-.612.546-1.03.883h2.202v.486h-3.078v-.416zm7.295-3.105c.265 0 .503.058.717.173.213.111.38.279.499.506.124.226.186.501.186.826v2.067h-.576v-1.984c0-.35-.087-.617-.262-.8-.175-.188-.414-.282-.717-.282-.307 0-.553.096-.736.288-.179.192-.269.471-.269.838v1.939h-.582v-4.736h.582v1.728a1.15 1.15 0 01.474-.416c.205-.098.433-.147.685-.147z"/></symbol><symbol id="icon-instagram" viewBox="0 0 32 32"><path d="M10.353 8.471c-1.04 0-1.882.843-1.882 1.882v11.294c0 1.04.843 1.882 1.882 1.882h11.294c1.04 0 1.882-.843 1.882-1.882V10.353c0-1.04-.843-1.882-1.882-1.882H10.353zm10.519 3.542a.886.886 0 11-1.773 0 .886.886 0 011.773 0zM12.014 16c0-2.211 1.806-3.986 3.986-3.986S19.986 13.82 19.986 16 18.211 19.986 16 19.986 12.014 18.211 12.014 16zm1.433 0c0 1.401 1.152 2.554 2.554 2.554s2.554-1.152 2.554-2.554-1.152-2.554-2.554-2.554A2.566 2.566 0 0013.447 16z"/><path fill="none" stroke="var(--color2, #000)" stroke-width=".627" d="M10.039.314h11.922c5.371 0 9.726 4.354 9.726 9.726v11.922c0 5.371-4.354 9.726-9.726 9.726H10.039c-5.371 0-9.726-4.354-9.726-9.726V10.04c0-5.371 4.354-9.726 9.726-9.726z"/></symbol><symbol id="icon-telegram" viewBox="0 0 32 32"><path d="M23.486 9.842l-2.273 12.779c-.171.902-.619 1.126-1.254.702l-3.462-3.043-1.671 1.916c-.185.22-.339.405-.696.405l.249-4.205 6.417-6.915c.279-.297-.061-.461-.434-.164l-7.933 5.957-3.415-1.275c-.743-.277-.756-.886.155-1.311l13.359-6.137c.619-.277 1.16.164.958 1.291z"/><path fill="none" stroke="var(--color2, #000)" stroke-width=".627" d="M10.039.314h11.922c5.371 0 9.726 4.354 9.726 9.726v11.922c0 5.371-4.354 9.726-9.726 9.726H10.039c-5.371 0-9.726-4.354-9.726-9.726V10.04c0-5.371 4.354-9.726 9.726-9.726z"/></symbol><symbol id="icon-youtube" viewBox="0 0 32 32"><path d="M21.883 11.281a1.844 1.844 0 011.331 1.272c.315 1.122.315 3.463.315 3.463s0 2.341-.315 3.463c-.173.619-.683 1.086-1.331 1.252-1.174.3-5.883.3-5.883.3s-4.709 0-5.883-.3c-.648-.166-1.158-.633-1.331-1.252-.315-1.122-.315-3.463-.315-3.463s0-2.341.315-3.463a1.846 1.846 0 011.331-1.272C11.291 10.98 16 10.98 16 10.98s4.709 0 5.883.3zM14.46 13.89v4.25l3.936-2.125-3.936-2.125z"/><path fill="none" stroke="var(--color2, #000)" stroke-width=".627" d="M10.039.314h11.922c5.371 0 9.726 4.354 9.726 9.726v11.922c0 5.371-4.354 9.726-9.726 9.726H10.039c-5.371 0-9.726-4.354-9.726-9.726V10.04c0-5.371 4.354-9.726 9.726-9.726z"/></symbol><symbol id="icon-facebook" viewBox="0 0 32 32"><path d="M19.765 13.347h-2.778v-1.563c0-.587.454-.724.773-.724h1.96V8.48l-2.7-.009c-2.997 0-3.679 1.925-3.679 3.156v1.72h-1.733v2.659h1.733v7.524h3.646v-7.524h2.46l.318-2.659z"/><path fill="none" stroke="var(--color2, #000)" stroke-width=".627" d="M10.039.314h11.922c5.371 0 9.726 4.354 9.726 9.726v11.922c0 5.371-4.354 9.726-9.726 9.726H10.039c-5.371 0-9.726-4.354-9.726-9.726V10.04c0-5.371 4.354-9.726 9.726-9.726z"/></symbol><symbol id="icon-linkedin" viewBox="0 0 32 32"><path d="M11.74 23.529H8.525V12.773h3.215v10.756zm11.789 0h-3.215v-5.746c0-1.497-.532-2.243-1.585-2.243-.835 0-1.364.417-1.63 1.253v6.736h-3.215s.043-9.681 0-10.756h2.538l.196 2.151h.066c.659-1.076 1.713-1.805 3.157-1.805 1.099 0 1.987.306 2.666 1.077.683.771 1.023 1.806 1.023 3.259v6.074zM10.132 11.698c.918 0 1.661-.722 1.661-1.614s-.744-1.613-1.661-1.613-1.661.722-1.661 1.613.744 1.614 1.661 1.614z"/><path fill="none" stroke="var(--color2, #000)" stroke-width=".627" d="M10.039.314h11.922c5.371 0 9.726 4.354 9.726 9.726v11.922c0 5.371-4.354 9.726-9.726 9.726H10.039c-5.371 0-9.726-4.354-9.726-9.726V10.04c0-5.371 4.354-9.726 9.726-9.726z"/></symbol><symbol id="icon-play" viewBox="0 0 48 32"><path fill="none" stroke="var(--color1, #f5f5f5)" stroke-width=".741" d="M18.13 25.441a1.111 1.111 0 01-1.76-.902V7.461a1.111 1.111 0 011.76-.902l11.877 8.539a1.11 1.11 0 010 1.804L18.13 25.441zm19.234 1.073A2.214 2.214 0 0135.15 24.3V7.7a2.214 2.214 0 114.428 0v16.6a2.214 2.214 0 01-2.214 2.214zm8.052 0a2.214 2.214 0 01-2.214-2.214V7.7a2.214 2.214 0 114.428 0v16.6a2.214 2.214 0 01-2.214 2.214z"/><path fill="var(--color3, #d1d1d1)" d="M5.333 16a2.667 2.667 0 11-5.334 0 2.667 2.667 0 015.334 0z"/></symbol><symbol id="icon-next" viewBox="0 0 59 32"><path fill="none" stroke="var(--color1, #f5f5f5)" stroke-linejoin="round" stroke-width=".741" d="M28.717 24.243l.001-.001 7.711-7.981a.37.37 0 00-.002-.517L28.66 7.816c-.297-.301-.456-.677-.472-1.153v-.001a1.544 1.544 0 01.463-1.183c.289-.298.656-.452 1.132-.454s.843.15 1.135.446l9.219 9.35c.167.17.278.345.342.525.069.195.105.409.105.642s-.034.447-.101.643a1.435 1.435 0 01-.339.527l-9.154 9.414c-.294.303-.659.463-1.119.478h-.001c-.44.016-.816-.134-1.147-.47-.292-.296-.446-.675-.447-1.167s.149-.872.439-1.17zm13.18-.046l.001-.001 7.711-7.981a.37.37 0 00-.002-.517L41.84 7.77c-.297-.301-.457-.678-.474-1.153a1.553 1.553 0 01.465-1.184c.289-.298.657-.452 1.132-.454s.843.15 1.135.446l9.219 9.35c.167.17.277.344.34.524l.001.002c.07.195.106.408.107.641s-.034.446-.102.642l-.001.002c-.062.18-.17.356-.336.526l-9.153 9.413c-.295.303-.659.463-1.117.478h-.001c-.442.016-.818-.135-1.149-.47-.292-.296-.446-.675-.448-1.167s.149-.872.439-1.17z"/><path fill="none" stroke="var(--color1, #f5f5f5)" stroke-linecap="round" stroke-width=".741" d="M57.894 4.942v22.116"/><path fill="var(--color3, #d1d1d1)" d="M16 16a2.667 2.667 0 11-5.334 0A2.667 2.667 0 0116 16zM5.333 16a2.667 2.667 0 11-5.334 0 2.667 2.667 0 015.334 0z"/></symbol><symbol id="icon-previous" viewBox="0 0 69 32"><path fill="none" stroke="var(--color1, #f5f5f5)" stroke-linejoin="round" stroke-width=".741" d="M67.283 24.243l-.001-.001-7.711-7.981a.37.37 0 01.002-.517l7.767-7.928c.297-.301.456-.677.472-1.153v-.001a1.544 1.544 0 00-.463-1.183c-.289-.298-.656-.452-1.132-.454s-.843.15-1.135.446l-9.219 9.35c-.167.17-.278.345-.342.525-.069.195-.105.409-.105.642s.034.447.101.643c.063.181.173.356.339.527l9.154 9.414c.294.303.659.463 1.119.478h.001c.44.016.816-.134 1.147-.47.292-.296.446-.675.447-1.167s-.149-.872-.439-1.17zm-13.18-.046l-.001-.001-7.711-7.981a.37.37 0 01.002-.517L54.16 7.77c.297-.301.457-.678.474-1.153a1.553 1.553 0 00-.465-1.184c-.289-.298-.657-.452-1.132-.454s-.843.15-1.135.446l-9.219 9.35c-.167.17-.277.344-.34.524l-.001.002c-.07.195-.106.408-.107.641s.034.446.102.642l.001.002c.062.18.17.356.336.526l9.153 9.413c.295.303.659.463 1.117.478h.001c.442.016.818-.135 1.149-.47.292-.296.446-.675.448-1.167s-.149-.872-.439-1.17z"/><path fill="none" stroke="var(--color1, #f5f5f5)" stroke-linecap="round" stroke-width=".741" d="M38.106 4.942v22.116"/><path fill="var(--color3, #d1d1d1)" d="M26.667 16a2.667 2.667 0 11-5.334 0 2.667 2.667 0 015.334 0zM16 16a2.667 2.667 0 11-5.334 0A2.667 2.667 0 0116 16zM5.333 16a2.667 2.667 0 11-5.334 0 2.667 2.667 0 015.334 0z"/></symbol><symbol id="icon-mute" viewBox="0 0 32 32"><path fill="none" stroke="var(--color1, #f5f5f5)" stroke-width=".772" d="M17.792 3.063l.001-.001a1.346 1.346 0 011.531-.256c.515.25.862.807.862 1.44v23.51c0 .635-.348 1.196-.86 1.439s-1.111.15-1.533-.255l-.001-.001-7.82-7.447H5.943c-1.779 0-3.271-1.559-3.271-3.533v-3.918c0-1.974 1.492-3.532 3.271-3.532h4.029l7.82-7.447z"/><path fill="none" stroke="var(--color1, #f5f5f5)" stroke-linecap="round" stroke-width=".772" d="M22.857 16h6.857"/></symbol><symbol id="icon-soundOn" viewBox="0 0 32 32"><path fill="none" stroke="var(--color1, #f5f5f5)" stroke-width=".772" d="M17.792 3.063l.001-.001a1.346 1.346 0 011.531-.256c.515.25.862.807.862 1.44v23.51c0 .635-.348 1.196-.86 1.439s-1.111.15-1.533-.255l-.001-.001-7.82-7.447H5.943c-1.779 0-3.271-1.559-3.271-3.533v-3.918c0-1.974 1.492-3.532 3.271-3.532h4.029l7.82-7.447z"/><path fill="none" stroke="var(--color1, #f5f5f5)" stroke-linecap="round" stroke-width=".772" d="M26.286 12.571v6.857M22.857 16h6.857"/></symbol><symbol id="icon-processor" viewBox="0 0 32 32"><path d="M12.705 11.2c-.428.03-.928.303-1.22.658-.266.322-.485.802-.399 1.267.468.014.951-.265 1.231-.627.262-.336.46-.813.388-1.299z"/><path d="M14.396 13.884c-.411-.514-.988-.812-1.534-.812-.72 0-1.025.344-1.525.344-.516 0-.908-.342-1.53-.342-.612 0-1.263.372-1.676 1.01-.581.897-.481 2.583.46 4.02.337.514.786 1.092 1.374 1.097.523.005.671-.334 1.38-.338s.843.343 1.366.337c.589-.005 1.063-.645 1.399-1.159a5.79 5.79 0 00.518-.97c-1.361-.517-1.579-2.445-.232-3.186z"/><path fill="none" stroke="var(--color1, #000)" stroke-linecap="round" stroke-width=".686" d="M8 27.886v2.743m3.2-2.743v2.743m3.2-2.743v2.743m3.2-2.743v2.743m3.2-2.743v2.743m3.2-2.743v2.743M1.371 24h2.743m-2.743-3.2h2.743m-2.743-3.2h2.743m-2.743-3.2h2.743m-2.743-3.2h2.743M1.371 8h2.743m23.772 16h2.743m-2.743-3.2h2.743m-2.743-3.2h2.743m-2.743-3.2h2.743m-2.743-3.2h2.743M27.886 8h2.743M8 1.371v2.743m3.2-2.743v2.743m3.2-2.743v2.743m3.2-2.743v2.743m3.2-2.743v2.743M24 1.371v2.743"/><path fill="none" stroke="var(--color1, #000)" stroke-width=".686" d="M5.714 4.457h20.571c.694 0 1.257.563 1.257 1.257v20.571c0 .694-.563 1.257-1.257 1.257H5.714a1.257 1.257 0 01-1.257-1.257V5.714c0-.694.563-1.257 1.257-1.257z"/><path d="M21.952 13.825l-1.293 4.461h-.653l-1.037-3.59-1.075 3.59-.646.006L16 13.825h.621l.973 3.782 1.075-3.782h.653l1.024 3.77.979-3.77h.627zm.388.365v-.531h1.203v4.627h-.589V14.19h-.614z"/></symbol><symbol id="icon-circle" viewBox="0 0 32 32"><path stroke-width=".75" d="M17.875 16a2.124 2.124 0 11-4.249.001A2.124 2.124 0 0117.875 16z"/><path stroke-linecap="round" stroke-width=".75" d="M12.75.5C6.375 2 2.125 6.25.5 12.875m13.25-7C10.25 6.75 7 9.375 5.875 14M18.75.5C25.125 2 29.375 6.25 31 12.875m-13.25-7c3.5.875 6.75 3.5 7.875 8.125M12.75 31.5C6.375 30 2.125 25.75.5 19.125m13.25 7C10.25 25.25 7 22.625 5.875 18M18.75 31.5C25.125 30 29.375 25.75 31 19.125m-13.25 7c3.5-.875 6.75-3.5 7.875-8.125"/></symbol><symbol fill="none" xmlns="http://www.w3.org/2000/svg" viewBox="0 0 20 20" id="icon-burger"><path stroke="#F5F5F5" stroke-width=".556" stroke-linecap="round" d="M.278 5.722h19.444m-19.444 4h19.444m-19.444 4h19.444"/></symbol><symbol xmlns="http://www.w3.org/2000/svg" viewBox="0 0 48 48" id="icon-close"><path d="M12.45 37.65l-2.1-2.1L21.9 24 10.35 12.45l2.1-2.1L24 21.9l11.55-11.55 2.1 2.1L26.1 24l11.55 11.55-2.1 2.1L24 26.1z"/></symbol></defs></svg>