<svg xmlns="http://www.w3.org/2000/svg" width="140" height="140" fill="none"><path stroke="url(#a)" stroke-width="3" d="M84 13V4a2 2 0 00-2-2H58a2 2 0 00-2 2v9"/><rect width="69" height="127" x="35.5" y="11.5" stroke="url(#b)" stroke-width="3" rx="5.5"/><path stroke="url(#c)" stroke-width="3" d="M34 106.5h72"/><path fill="url(#d)" d="M42.635 77.956c2.37-1.904 4.228-3.463 5.572-4.676 1.344-1.232 2.473-2.51 3.388-3.836.933-1.344 1.4-2.66 1.4-3.948 0-1.213-.299-2.165-.896-2.856-.579-.71-1.521-1.064-2.828-1.064-1.27 0-2.259.401-2.968 1.204-.69.784-1.064 1.839-1.12 3.164h-2.464c.075-2.09.71-3.705 1.904-4.844 1.195-1.139 2.735-1.708 4.62-1.708 1.923 0 3.444.532 4.564 1.596 1.139 1.064 1.708 2.53 1.708 4.396 0 1.55-.467 3.061-1.4 4.536a19.98 19.98 0 01-3.136 3.864c-1.176 1.101-2.679 2.39-4.508 3.864h9.632v2.128H42.635v-1.82zm16.105 0c2.371-1.904 4.228-3.463 5.572-4.676 1.344-1.232 2.474-2.51 3.389-3.836.933-1.344 1.4-2.66 1.4-3.948 0-1.213-.3-2.165-.897-2.856-.578-.71-1.52-1.064-2.828-1.064-1.269 0-2.258.401-2.968 1.204-.69.784-1.064 1.839-1.12 3.164h-2.463c.074-2.09.709-3.705 1.903-4.844 1.195-1.139 2.735-1.708 4.62-1.708 1.923 0 3.445.532 4.564 1.596 1.14 1.064 1.709 2.53 1.709 4.396 0 1.55-.467 3.061-1.4 4.536a19.983 19.983 0 01-3.136 3.864c-1.176 1.101-2.68 2.39-4.508 3.864h9.632v2.128H58.74v-1.82zm31.915-13.58c1.157 0 2.203.252 3.136.756.933.485 1.661 1.223 2.184 2.212.541.99.812 2.193.812 3.612V80h-2.52v-8.68c0-1.53-.383-2.697-1.148-3.5-.766-.821-1.81-1.232-3.136-1.232-1.344 0-2.418.42-3.22 1.26-.784.84-1.176 2.063-1.176 3.668V80h-2.548V59.28h2.548v7.56a5.039 5.039 0 012.072-1.82c.896-.43 1.894-.644 2.996-.644z"/><defs><linearGradient id="a" x1="50.8" x2="82.941" y1="15.843" y2="-2.456" gradientUnits="userSpaceOnUse"><stop stop-color="#48C8FF"/><stop offset="1" stop-color="#FF5BCB"/></linearGradient><linearGradient id="b" x1="20.628" x2="128.412" y1="173.595" y2="160.243" gradientUnits="userSpaceOnUse"><stop stop-color="#48C8FF"/><stop offset="1" stop-color="#FF5BCB"/></linearGradient><linearGradient id="c" x1="20.628" x2="21.049" y1="109.258" y2="102.489" gradientUnits="userSpaceOnUse"><stop stop-color="#48C8FF"/><stop offset="1" stop-color="#FF5BCB"/></linearGradient><linearGradient id="d" x1="30.229" x2="110.708" y1="101.854" y2="76.996" gradientUnits="userSpaceOnUse"><stop stop-color="#48C8FF"/><stop offset="1" stop-color="#FF5BCB"/></linearGradient></defs></svg>