<svg width="140" height="140" fill="none" xmlns="http://www.w3.org/2000/svg"><path stroke="url(#paint0_linear_149_72)" stroke-width="3" d="M32 126.5h76"/><path stroke="url(#paint1_linear_149_72)" stroke-width="3" d="M32 12.5h76"/><rect x="33.5" y="1.5" width="73" height="137" rx="9.5" stroke="url(#paint2_linear_149_72)" stroke-width="3"/><path d="M56.645 78.104c-2.397-3.081-5.766-4.87-8.948-4.87-4.2 0-5.976 2.062-8.894 2.062-3.009 0-5.295-2.055-8.927-2.055-3.568 0-7.367 2.235-9.776 6.057-3.386 5.382-2.806 15.5 2.681 24.12 1.964 3.084 4.587 6.552 8.017 6.582 3.053.03 3.913-2.007 8.049-2.028 4.135-.024 4.92 2.055 7.967 2.022 3.433-.027 6.199-3.87 8.163-6.954 1.407-2.211 1.931-3.324 3.023-5.82-7.94-3.1-9.214-14.673-1.355-19.116z" fill="url(#paint3_linear_149_72)"/><path d="M46.778 62c-2.497.177-5.415 1.815-7.115 3.948-1.551 1.935-2.827 4.809-2.33 7.602 2.728.087 5.547-1.59 7.18-3.76 1.528-2.018 2.684-4.874 2.265-7.79z" fill="url(#paint4_linear_149_72)"/><path d="M110.25 79c1.681 0 3.148-1.458 3.148-3.13v-7.309h2.102c1.261 0 2.102-.836 2.102-2.09V45.595H92.398v20.877c0 1.253.84 2.09 2.102 2.09h2.102v7.308c0 1.672 1.466 3.13 3.148 3.13 1.681 0 3.148-1.458 3.148-3.13v-7.309h4.204v7.31c0 1.671 1.466 3.129 3.148 3.129z" fill="url(#paint5_linear_149_72)"/><path d="M122.5 66c1.336 0 2.5-1.397 2.5-2.998V48.997c0-1.593-1.164-2.997-2.5-2.997s-2.5 1.404-2.5 2.997v14.005c0 1.601 1.164 2.998 2.5 2.998z" fill="url(#paint6_linear_149_72)"/><path d="M87.5 66c1.335 0 2.5-1.397 2.5-2.998V48.997C90 47.404 88.836 46 87.5 46S85 47.404 85 48.997v14.005C85 64.603 86.164 66 87.5 66z" fill="url(#paint7_linear_149_72)"/><path d="M115.079 29.315a1.01 1.01 0 00-1.466 0l-2.819 2.794-.13.129c-1.672-.832-3.546-1.248-5.633-1.252h-.062c-2.087.004-3.962.42-5.633 1.252l-.13-.13-2.82-2.793a1.01 1.01 0 00-1.466 0 .998.998 0 000 1.457l2.727 2.711a11.342 11.342 0 00-2.368 2.114 12.23 12.23 0 00-2.863 7.256l-.005.085c-.01.188-.013.377-.013.566h25.204c0-.19-.005-.378-.013-.566l-.006-.085a12.226 12.226 0 00-2.863-7.256 11.31 11.31 0 00-2.368-2.113l2.727-2.712a.998.998 0 000-1.457zm-15.333 10.54c-.87 0-1.575-.7-1.575-1.565a1.57 1.57 0 011.575-1.566c.87 0 1.575.701 1.575 1.566a1.57 1.57 0 01-1.575 1.565zm10.508 0c-.87 0-1.575-.7-1.575-1.565a1.57 1.57 0 011.575-1.566 1.57 1.57 0 011.574 1.566 1.57 1.57 0 01-1.574 1.565z" fill="url(#paint8_linear_149_72)"/><defs><linearGradient id="paint0_linear_149_72" x1="17.886" y1="129.258" x2="18.284" y2="122.486" gradientUnits="userSpaceOnUse"><stop stop-color="#48C8FF"/><stop offset="1" stop-color="#FF5BCB"/></linearGradient><linearGradient id="paint1_linear_149_72" x1="17.886" y1="15.258" x2="18.284" y2="8.486" gradientUnits="userSpaceOnUse"><stop stop-color="#48C8FF"/><stop offset="1" stop-color="#FF5BCB"/></linearGradient><linearGradient id="paint2_linear_149_72" x1="17.886" y1="176.179" x2="131.724" y2="162.357" gradientUnits="userSpaceOnUse"><stop stop-color="#48C8FF"/><stop offset="1" stop-color="#FF5BCB"/></linearGradient><linearGradient id="paint3_linear_149_72" x1="10.571" y1="119.501" x2="67.971" y2="105.533" gradientUnits="userSpaceOnUse"><stop stop-color="#48C8FF"/><stop offset="1" stop-color="#FF5BCB"/></linearGradient><linearGradient id="paint4_linear_149_72" x1="35.434" y1="76.539" x2="49.594" y2="73.896" gradientUnits="userSpaceOnUse"><stop stop-color="#48C8FF"/><stop offset="1" stop-color="#FF5BCB"/></linearGradient><linearGradient id="paint5_linear_149_72" x1="87.717" y1="87.633" x2="124.965" y2="81.347" gradientUnits="userSpaceOnUse"><stop stop-color="#48C8FF"/><stop offset="1" stop-color="#FF5BCB"/></linearGradient><linearGradient id="paint6_linear_149_72" x1="119.071" y1="71.168" x2="126.648" y2="70.745" gradientUnits="userSpaceOnUse"><stop stop-color="#48C8FF"/><stop offset="1" stop-color="#FF5BCB"/></linearGradient><linearGradient id="paint7_linear_149_72" x1="84.071" y1="71.168" x2="91.647" y2="70.745" gradientUnits="userSpaceOnUse"><stop stop-color="#48C8FF"/><stop offset="1" stop-color="#FF5BCB"/></linearGradient><linearGradient id="paint8_linear_149_72" x1="87.717" y1="47.252" x2="120.999" y2="34.317" gradientUnits="userSpaceOnUse"><stop stop-color="#48C8FF"/><stop offset="1" stop-color="#FF5BCB"/></linearGradient></defs></svg>