<svg width="140" height="140" fill="none" xmlns="http://www.w3.org/2000/svg"><path d="M55.584 49c-1.873.13-4.061 1.323-5.337 2.879-1.163 1.41-2.12 3.506-1.747 5.543 2.046.063 4.16-1.16 5.385-2.741 1.146-1.472 2.013-3.555 1.699-5.681z" fill="url(#paint0_linear_149_86)"/><path d="M62.984 60.743c-1.798-2.247-4.325-3.55-6.71-3.55-3.15 0-4.483 1.502-6.672 1.502-2.256 0-3.97-1.498-6.695-1.498-2.676 0-5.525 1.63-7.332 4.416-2.54 3.925-2.105 11.303 2.011 17.588 1.473 2.248 3.44 4.777 6.013 4.799 2.289.022 2.934-1.463 6.036-1.479 3.102-.017 3.69 1.499 5.975 1.475 2.575-.02 4.65-2.822 6.122-5.071 1.056-1.612 1.45-2.424 2.268-4.244-5.955-2.26-6.91-10.699-1.016-13.938z" fill="url(#paint1_linear_149_86)"/><path d="M35 122v12" stroke="url(#paint2_linear_149_86)" stroke-width="3" stroke-linecap="round"/><path d="M49 122v12" stroke="url(#paint3_linear_149_86)" stroke-width="3" stroke-linecap="round"/><path d="M63 122v12" stroke="url(#paint4_linear_149_86)" stroke-width="3" stroke-linecap="round"/><path d="M77 122v12" stroke="url(#paint5_linear_149_86)" stroke-width="3" stroke-linecap="round"/><path d="M91 122v12" stroke="url(#paint6_linear_149_86)" stroke-width="3" stroke-linecap="round"/><path d="M105 122v12" stroke="url(#paint7_linear_149_86)" stroke-width="3" stroke-linecap="round"/><path d="M6 105h12" stroke="url(#paint8_linear_149_86)" stroke-width="3" stroke-linecap="round"/><path d="M6 91h12" stroke="url(#paint9_linear_149_86)" stroke-width="3" stroke-linecap="round"/><path d="M6 77h12" stroke="url(#paint10_linear_149_86)" stroke-width="3" stroke-linecap="round"/><path d="M6 63h12" stroke="url(#paint11_linear_149_86)" stroke-width="3" stroke-linecap="round"/><path d="M6 49h12" stroke="url(#paint12_linear_149_86)" stroke-width="3" stroke-linecap="round"/><path d="M6 35h12" stroke="url(#paint13_linear_149_86)" stroke-width="3" stroke-linecap="round"/><path d="M122 105h12" stroke="url(#paint14_linear_149_86)" stroke-width="3" stroke-linecap="round"/><path d="M122 91h12" stroke="url(#paint15_linear_149_86)" stroke-width="3" stroke-linecap="round"/><path d="M122 77h12" stroke="url(#paint16_linear_149_86)" stroke-width="3" stroke-linecap="round"/><path d="M122 63h12" stroke="url(#paint17_linear_149_86)" stroke-width="3" stroke-linecap="round"/><path d="M122 49h12" stroke="url(#paint18_linear_149_86)" stroke-width="3" stroke-linecap="round"/><path d="M122 35h12" stroke="url(#paint19_linear_149_86)" stroke-width="3" stroke-linecap="round"/><path d="M35 6v12" stroke="url(#paint20_linear_149_86)" stroke-width="3" stroke-linecap="round"/><path d="M49 6v12" stroke="url(#paint21_linear_149_86)" stroke-width="3" stroke-linecap="round"/><path d="M63 6v12" stroke="url(#paint22_linear_149_86)" stroke-width="3" stroke-linecap="round"/><path d="M77 6v12" stroke="url(#paint23_linear_149_86)" stroke-width="3" stroke-linecap="round"/><path d="M91 6v12" stroke="url(#paint24_linear_149_86)" stroke-width="3" stroke-linecap="round"/><path d="M105 6v12" stroke="url(#paint25_linear_149_86)" stroke-width="3" stroke-linecap="round"/><rect x="19.5" y="19.5" width="101" height="101" rx="5.5" stroke="url(#paint26_linear_149_86)" stroke-width="3"/><path d="M96.041 60.484L90.385 80H87.53l-4.536-15.708L78.29 80l-2.828.028-5.46-19.544h2.716l4.256 16.548 4.704-16.548h2.856l4.48 16.492 4.284-16.492h2.744zm1.697 1.596v-2.324h5.264V80h-2.576V62.08h-2.688z" fill="url(#paint27_linear_149_86)"/><defs><linearGradient id="paint0_linear_149_86" x1="47.075" y1="59.601" x2="57.675" y2="57.566" gradientUnits="userSpaceOnUse"><stop stop-color="#48C8FF"/><stop offset="1" stop-color="#FF5BCB"/></linearGradient><linearGradient id="paint1_linear_149_86" x1="28.429" y1="90.928" x2="71.339" y2="80.188" gradientUnits="userSpaceOnUse"><stop stop-color="#48C8FF"/><stop offset="1" stop-color="#FF5BCB"/></linearGradient><linearGradient id="paint2_linear_149_86" x1="34.814" y1="137.101" x2="36.334" y2="137.073" gradientUnits="userSpaceOnUse"><stop stop-color="#48C8FF"/><stop offset="1" stop-color="#FF5BCB"/></linearGradient><linearGradient id="paint3_linear_149_86" x1="48.814" y1="137.101" x2="50.334" y2="137.073" gradientUnits="userSpaceOnUse"><stop stop-color="#48C8FF"/><stop offset="1" stop-color="#FF5BCB"/></linearGradient><linearGradient id="paint4_linear_149_86" x1="62.814" y1="137.101" x2="64.334" y2="137.073" gradientUnits="userSpaceOnUse"><stop stop-color="#48C8FF"/><stop offset="1" stop-color="#FF5BCB"/></linearGradient><linearGradient id="paint5_linear_149_86" x1="76.814" y1="137.101" x2="78.334" y2="137.073" gradientUnits="userSpaceOnUse"><stop stop-color="#48C8FF"/><stop offset="1" stop-color="#FF5BCB"/></linearGradient><linearGradient id="paint6_linear_149_86" x1="90.814" y1="137.101" x2="92.334" y2="137.073" gradientUnits="userSpaceOnUse"><stop stop-color="#48C8FF"/><stop offset="1" stop-color="#FF5BCB"/></linearGradient><linearGradient id="paint7_linear_149_86" x1="104.814" y1="137.101" x2="106.334" y2="137.073" gradientUnits="userSpaceOnUse"><stop stop-color="#48C8FF"/><stop offset="1" stop-color="#FF5BCB"/></linearGradient><linearGradient id="paint8_linear_149_86" x1="21.101" y1="105.186" x2="21.073" y2="103.666" gradientUnits="userSpaceOnUse"><stop stop-color="#48C8FF"/><stop offset="1" stop-color="#FF5BCB"/></linearGradient><linearGradient id="paint9_linear_149_86" x1="21.101" y1="91.186" x2="21.073" y2="89.666" gradientUnits="userSpaceOnUse"><stop stop-color="#48C8FF"/><stop offset="1" stop-color="#FF5BCB"/></linearGradient><linearGradient id="paint10_linear_149_86" x1="21.101" y1="77.186" x2="21.073" y2="75.666" gradientUnits="userSpaceOnUse"><stop stop-color="#48C8FF"/><stop offset="1" stop-color="#FF5BCB"/></linearGradient><linearGradient id="paint11_linear_149_86" x1="21.101" y1="63.186" x2="21.073" y2="61.666" gradientUnits="userSpaceOnUse"><stop stop-color="#48C8FF"/><stop offset="1" stop-color="#FF5BCB"/></linearGradient><linearGradient id="paint12_linear_149_86" x1="21.101" y1="49.186" x2="21.073" y2="47.666" gradientUnits="userSpaceOnUse"><stop stop-color="#48C8FF"/><stop offset="1" stop-color="#FF5BCB"/></linearGradient><linearGradient id="paint13_linear_149_86" x1="21.101" y1="35.186" x2="21.073" y2="33.666" gradientUnits="userSpaceOnUse"><stop stop-color="#48C8FF"/><stop offset="1" stop-color="#FF5BCB"/></linearGradient><linearGradient id="paint14_linear_149_86" x1="137.101" y1="105.186" x2="137.073" y2="103.666" gradientUnits="userSpaceOnUse"><stop stop-color="#48C8FF"/><stop offset="1" stop-color="#FF5BCB"/></linearGradient><linearGradient id="paint15_linear_149_86" x1="137.101" y1="91.186" x2="137.073" y2="89.666" gradientUnits="userSpaceOnUse"><stop stop-color="#48C8FF"/><stop offset="1" stop-color="#FF5BCB"/></linearGradient><linearGradient id="paint16_linear_149_86" x1="137.101" y1="77.186" x2="137.073" y2="75.666" gradientUnits="userSpaceOnUse"><stop stop-color="#48C8FF"/><stop offset="1" stop-color="#FF5BCB"/></linearGradient><linearGradient id="paint17_linear_149_86" x1="137.101" y1="63.186" x2="137.073" y2="61.666" gradientUnits="userSpaceOnUse"><stop stop-color="#48C8FF"/><stop offset="1" stop-color="#FF5BCB"/></linearGradient><linearGradient id="paint18_linear_149_86" x1="137.101" y1="49.186" x2="137.073" y2="47.666" gradientUnits="userSpaceOnUse"><stop stop-color="#48C8FF"/><stop offset="1" stop-color="#FF5BCB"/></linearGradient><linearGradient id="paint19_linear_149_86" x1="137.101" y1="35.186" x2="137.073" y2="33.666" gradientUnits="userSpaceOnUse"><stop stop-color="#48C8FF"/><stop offset="1" stop-color="#FF5BCB"/></linearGradient><linearGradient id="paint20_linear_149_86" x1="34.814" y1="21.101" x2="36.334" y2="21.073" gradientUnits="userSpaceOnUse"><stop stop-color="#48C8FF"/><stop offset="1" stop-color="#FF5BCB"/></linearGradient><linearGradient id="paint21_linear_149_86" x1="48.814" y1="21.101" x2="50.334" y2="21.073" gradientUnits="userSpaceOnUse"><stop stop-color="#48C8FF"/><stop offset="1" stop-color="#FF5BCB"/></linearGradient><linearGradient id="paint22_linear_149_86" x1="62.814" y1="21.101" x2="64.334" y2="21.073" gradientUnits="userSpaceOnUse"><stop stop-color="#48C8FF"/><stop offset="1" stop-color="#FF5BCB"/></linearGradient><linearGradient id="paint23_linear_149_86" x1="76.814" y1="21.101" x2="78.334" y2="21.073" gradientUnits="userSpaceOnUse"><stop stop-color="#48C8FF"/><stop offset="1" stop-color="#FF5BCB"/></linearGradient><linearGradient id="paint24_linear_149_86" x1="90.814" y1="21.101" x2="92.334" y2="21.073" gradientUnits="userSpaceOnUse"><stop stop-color="#48C8FF"/><stop offset="1" stop-color="#FF5BCB"/></linearGradient><linearGradient id="paint25_linear_149_86" x1="104.814" y1="21.101" x2="106.334" y2="21.073" gradientUnits="userSpaceOnUse"><stop stop-color="#48C8FF"/><stop offset="1" stop-color="#FF5BCB"/></linearGradient><linearGradient id="paint26_linear_149_86" x1="-1.314" y1="148.876" x2="149.23" y2="115.204" gradientUnits="userSpaceOnUse"><stop stop-color="#48C8FF"/><stop offset="1" stop-color="#FF5BCB"/></linearGradient><linearGradient id="paint27_linear_149_86" x1="62.129" y1="101.854" x2="116.265" y2="91.187" gradientUnits="userSpaceOnUse"><stop stop-color="#48C8FF"/><stop offset="1" stop-color="#FF5BCB"/></linearGradient></defs></svg>