<svg width="140" height="140" fill="none" xmlns="http://www.w3.org/2000/svg"><circle cx="70" cy="70" r="8.5" fill="url(#paint0_linear_142_219)" stroke="url(#paint1_linear_142_219)" stroke-width="3"/><path d="M58 8C32.5 14 15.5 31 9 57.5" stroke="url(#paint2_linear_142_219)" stroke-width="3" stroke-linecap="round"/><path d="M62 29.5C48 33 35 43.5 30.5 62" stroke="url(#paint3_linear_142_219)" stroke-width="3" stroke-linecap="round"/><path d="M82 8c25.5 6 42.5 23 49 49.5" stroke="url(#paint4_linear_142_219)" stroke-width="3" stroke-linecap="round"/><path d="M78 29.5c14 3.5 27 14 31.5 32.5" stroke="url(#paint5_linear_142_219)" stroke-width="3" stroke-linecap="round"/><path d="M58 132c-25.5-6-42.5-23-49-49.5" stroke="url(#paint6_linear_142_219)" stroke-width="3" stroke-linecap="round"/><path d="M62 110.5C48 107 35 96.5 30.5 78" stroke="url(#paint7_linear_142_219)" stroke-width="3" stroke-linecap="round"/><path d="M82 132c25.5-6 42.5-23 49-49.5" stroke="url(#paint8_linear_142_219)" stroke-width="3" stroke-linecap="round"/><path d="M78 110.5c14-3.5 27-14 31.5-32.5" stroke="url(#paint9_linear_142_219)" stroke-width="3" stroke-linecap="round"/><defs><linearGradient id="paint0_linear_142_219" x1="56.286" y1="85.168" x2="85.237" y2="78.693" gradientUnits="userSpaceOnUse"><stop stop-color="#48C8FF"/><stop offset="1" stop-color="#FF5BCB"/></linearGradient><linearGradient id="paint1_linear_142_219" x1="56.286" y1="85.168" x2="85.237" y2="78.693" gradientUnits="userSpaceOnUse"><stop stop-color="#48C8FF"/><stop offset="1" stop-color="#FF5BCB"/></linearGradient><linearGradient id="paint2_linear_142_219" x1="-.1" y1="70.292" x2="70.898" y2="54.572" gradientUnits="userSpaceOnUse"><stop stop-color="#48C8FF"/><stop offset="1" stop-color="#FF5BCB"/></linearGradient><linearGradient id="paint3_linear_142_219" x1="24.65" y1="70.399" x2="70.38" y2="60.485" gradientUnits="userSpaceOnUse"><stop stop-color="#48C8FF"/><stop offset="1" stop-color="#FF5BCB"/></linearGradient><linearGradient id="paint4_linear_142_219" x1="140.1" y1="70.292" x2="69.102" y2="54.572" gradientUnits="userSpaceOnUse"><stop stop-color="#48C8FF"/><stop offset="1" stop-color="#FF5BCB"/></linearGradient><linearGradient id="paint5_linear_142_219" x1="115.35" y1="70.399" x2="69.62" y2="60.485" gradientUnits="userSpaceOnUse"><stop stop-color="#48C8FF"/><stop offset="1" stop-color="#FF5BCB"/></linearGradient><linearGradient id="paint6_linear_142_219" x1="-.1" y1="69.708" x2="70.898" y2="85.427" gradientUnits="userSpaceOnUse"><stop stop-color="#48C8FF"/><stop offset="1" stop-color="#FF5BCB"/></linearGradient><linearGradient id="paint7_linear_142_219" x1="24.65" y1="69.601" x2="70.38" y2="79.515" gradientUnits="userSpaceOnUse"><stop stop-color="#48C8FF"/><stop offset="1" stop-color="#FF5BCB"/></linearGradient><linearGradient id="paint8_linear_142_219" x1="140.1" y1="69.708" x2="69.102" y2="85.427" gradientUnits="userSpaceOnUse"><stop stop-color="#48C8FF"/><stop offset="1" stop-color="#FF5BCB"/></linearGradient><linearGradient id="paint9_linear_142_219" x1="115.35" y1="69.601" x2="69.62" y2="79.515" gradientUnits="userSpaceOnUse"><stop stop-color="#48C8FF"/><stop offset="1" stop-color="#FF5BCB"/></linearGradient></defs></svg>