<svg xmlns="http://www.w3.org/2000/svg" width="140" height="140" fill="none"><circle cx="70" cy="70" r="8.5" fill="url(#a)" stroke="url(#b)" stroke-width="3"/><path stroke="url(#c)" stroke-linecap="round" stroke-width="3" d="M58 8C32.5 14 15.5 31 9 57.5"/><path stroke="url(#d)" stroke-linecap="round" stroke-width="3" d="M62 29.5C48 33 35 43.5 30.5 62"/><path stroke="url(#e)" stroke-linecap="round" stroke-width="3" d="M82 8c25.5 6 42.5 23 49 49.5"/><path stroke="url(#f)" stroke-linecap="round" stroke-width="3" d="M78 29.5c14 3.5 27 14 31.5 32.5"/><path stroke="url(#g)" stroke-linecap="round" stroke-width="3" d="M58 132c-25.5-6-42.5-23-49-49.5"/><path stroke="url(#h)" stroke-linecap="round" stroke-width="3" d="M62 110.5C48 107 35 96.5 30.5 78"/><path stroke="url(#i)" stroke-linecap="round" stroke-width="3" d="M82 132c25.5-6 42.5-23 49-49.5"/><path stroke="url(#j)" stroke-linecap="round" stroke-width="3" d="M78 110.5c14-3.5 27-14 31.5-32.5"/><defs><linearGradient id="a" x1="56.286" x2="85.237" y1="85.168" y2="78.693" gradientUnits="userSpaceOnUse"><stop stop-color="#48C8FF"/><stop offset="1" stop-color="#FF5BCB"/></linearGradient><linearGradient id="b" x1="56.286" x2="85.237" y1="85.168" y2="78.693" gradientUnits="userSpaceOnUse"><stop stop-color="#48C8FF"/><stop offset="1" stop-color="#FF5BCB"/></linearGradient><linearGradient id="c" x1="-.1" x2="70.898" y1="70.292" y2="54.572" gradientUnits="userSpaceOnUse"><stop stop-color="#48C8FF"/><stop offset="1" stop-color="#FF5BCB"/></linearGradient><linearGradient id="d" x1="24.65" x2="70.38" y1="70.399" y2="60.485" gradientUnits="userSpaceOnUse"><stop stop-color="#48C8FF"/><stop offset="1" stop-color="#FF5BCB"/></linearGradient><linearGradient id="e" x1="140.1" x2="69.102" y1="70.292" y2="54.572" gradientUnits="userSpaceOnUse"><stop stop-color="#48C8FF"/><stop offset="1" stop-color="#FF5BCB"/></linearGradient><linearGradient id="f" x1="115.35" x2="69.62" y1="70.399" y2="60.485" gradientUnits="userSpaceOnUse"><stop stop-color="#48C8FF"/><stop offset="1" stop-color="#FF5BCB"/></linearGradient><linearGradient id="g" x1="-.1" x2="70.898" y1="69.708" y2="85.427" gradientUnits="userSpaceOnUse"><stop stop-color="#48C8FF"/><stop offset="1" stop-color="#FF5BCB"/></linearGradient><linearGradient id="h" x1="24.65" x2="70.38" y1="69.601" y2="79.515" gradientUnits="userSpaceOnUse"><stop stop-color="#48C8FF"/><stop offset="1" stop-color="#FF5BCB"/></linearGradient><linearGradient id="i" x1="140.1" x2="69.102" y1="69.708" y2="85.427" gradientUnits="userSpaceOnUse"><stop stop-color="#48C8FF"/><stop offset="1" stop-color="#FF5BCB"/></linearGradient><linearGradient id="j" x1="115.35" x2="69.62" y1="69.601" y2="79.515" gradientUnits="userSpaceOnUse"><stop stop-color="#48C8FF"/><stop offset="1" stop-color="#FF5BCB"/></linearGradient></defs></svg>